<?xml version="1.0" encoding="UTF-8" standalone="no"?><svg xmlns="http://www.w3.org/2000/svg" xmlns:xlink="http://www.w3.org/1999/xlink" contentScriptType="application/ecmascript" contentStyleType="text/css" height="1372px" preserveAspectRatio="none" style="width:1461px;height:1372px;" version="1.1" viewBox="0 0 1461 1372" width="1461px" zoomAndPan="magnify"><defs><filter height="300%" id="f6it1idn0ru0k" width="300%" x="-1" y="-1"><feGaussianBlur result="blurOut" stdDeviation="2.0"/><feColorMatrix in="blurOut" result="blurOut2" type="matrix" values="0 0 0 0 0 0 0 0 0 0 0 0 0 0 0 0 0 0 .4 0"/><feOffset dx="4.0" dy="4.0" in="blurOut2" result="blurOut3"/><feBlend in="SourceGraphic" in2="blurOut3" mode="normal"/></filter></defs><g><text fill="#000000" font-family="sans-serif" font-size="18" lengthAdjust="spacingAndGlyphs" textLength="193" x="636" y="17.4023">OneWireDriver Module</text><!--cluster OneWireDriver.h, OneWireDriver.c--><polygon fill="#FFFFFF" filter="url(#f6it1idn0ru0k)" points="14,37.1992,260,37.1992,267,59.6875,592,59.6875,592,980.1992,14,980.1992,14,37.1992" style="stroke: #000000; stroke-width: 1.5;"/><line style="stroke: #000000; stroke-width: 1.5;" x1="14" x2="267" y1="59.6875" y2="59.6875"/><text fill="#000000" font-family="sans-serif" font-size="14" font-weight="bold" lengthAdjust="spacingAndGlyphs" textLength="240" x="18" y="52.7344">OneWireDriver.h, OneWireDriver.c</text><!--cluster GPIO_Wrapper.h, GPIO_Wrapper.c--><polygon fill="#FFFFFF" filter="url(#f6it1idn0ru0k)" points="600,825.6992,840,825.6992,847,848.1875,850,848.1875,850,1360.1992,600,1360.1992,600,825.6992" style="stroke: #000000; stroke-width: 1.5;"/><line style="stroke: #000000; stroke-width: 1.5;" x1="600" x2="847" y1="848.1875" y2="848.1875"/><text fill="#000000" font-family="sans-serif" font-size="14" font-weight="bold" lengthAdjust="spacingAndGlyphs" textLength="234" x="604" y="841.2344">GPIO_Wrapper.h, GPIO_Wrapper.c</text><!--cluster Wait_Wrapper.h, Wait_Wrapper.c--><polygon fill="#FFFFFF" filter="url(#f6it1idn0ru0k)" points="858,838.6992,1090,838.6992,1097,861.1875,1174,861.1875,1174,960.6992,858,960.6992,858,838.6992" style="stroke: #000000; stroke-width: 1.5;"/><line style="stroke: #000000; stroke-width: 1.5;" x1="858" x2="1097" y1="861.1875" y2="861.1875"/><text fill="#000000" font-family="sans-serif" font-size="14" font-weight="bold" lengthAdjust="spacingAndGlyphs" textLength="226" x="862" y="854.2344">Wait_Wrapper.h, Wait_Wrapper.c</text><!--cluster OneWireSpecifications.h--><polygon fill="#FFFFFF" filter="url(#f6it1idn0ru0k)" points="1193,573.1992,1372,573.1992,1379,595.6875,1439,595.6875,1439,1226.1992,1193,1226.1992,1193,573.1992" style="stroke: #000000; stroke-width: 1.5;"/><line style="stroke: #000000; stroke-width: 1.5;" x1="1193" x2="1379" y1="595.6875" y2="595.6875"/><text fill="#000000" font-family="sans-serif" font-size="14" font-weight="bold" lengthAdjust="spacingAndGlyphs" textLength="173" x="1197" y="588.7344">OneWireSpecifications.h</text><!--class ModuleOneWireDriver--><rect fill="#FEFECE" filter="url(#f6it1idn0ru0k)" height="475.5176" id="ModuleOneWireDriver" style="stroke: #A80036; stroke-width: 1.5;" width="562" x="22" y="64.1992"/><ellipse cx="257.25" cy="80.1992" fill="#008000" rx="11" ry="11" style="stroke: #A80036; stroke-width: 1.0;"/><path d="M252.9639,73.8062 L255.8857,73.8062 L257.3633,79.2432 L258.8325,73.8062 L261.771,73.8062 L261.771,86.1992 L259.6626,86.1992 L259.6626,76.2715 L258.3511,81.6919 L256.4004,81.6919 L255.0723,76.2715 L255.0723,86.1992 L252.9639,86.1992 Z "/><text fill="#000000" font-family="sans-serif" font-size="12" lengthAdjust="spacingAndGlyphs" textLength="83" x="277.75" y="84.7344">OneWireDriver</text><line style="stroke: #A80036; stroke-width: 1.5;" x1="23" x2="583" y1="96.1992" y2="96.1992"/><rect fill="none" height="6" style="stroke: #C82930; stroke-width: 1.0;" width="6" x="30" y="105.1768"/><text fill="#000000" font-family="sans-serif" font-size="11" lengthAdjust="spacingAndGlyphs" textLength="112" x="42" y="110.834">«define» BYTE_SIZE 8</text><rect fill="none" height="6" style="stroke: #C82930; stroke-width: 1.0;" width="6" x="30" y="118.1318"/><text fill="#000000" font-family="sans-serif" font-size="11" lengthAdjust="spacingAndGlyphs" textLength="161" x="42" y="123.7891">«define» FAMILY_CODE_POS 0</text><rect fill="none" height="6" style="stroke: #C82930; stroke-width: 1.0;" width="6" x="30" y="131.0869"/><text fill="#000000" font-family="sans-serif" font-size="11" lengthAdjust="spacingAndGlyphs" textLength="189" x="42" y="136.7441">«define» SERIAL_NUMBER_LL_POS 1</text><rect fill="none" height="6" style="stroke: #C82930; stroke-width: 1.0;" width="6" x="30" y="144.042"/><text fill="#000000" font-family="sans-serif" font-size="11" lengthAdjust="spacingAndGlyphs" textLength="191" x="42" y="149.6992">«define» SERIAL_NUMBER_LH_POS 2</text><rect fill="none" height="6" style="stroke: #C82930; stroke-width: 1.0;" width="6" x="30" y="156.9971"/><text fill="#000000" font-family="sans-serif" font-size="11" lengthAdjust="spacingAndGlyphs" textLength="192" x="42" y="162.6543">«define» SERIAL_NUMBER_ML_POS 3</text><rect fill="none" height="6" style="stroke: #C82930; stroke-width: 1.0;" width="6" x="30" y="169.9521"/><text fill="#000000" font-family="sans-serif" font-size="11" lengthAdjust="spacingAndGlyphs" textLength="194" x="42" y="175.6094">«define» SERIAL_NUMBER_MH_POS 4</text><rect fill="none" height="6" style="stroke: #C82930; stroke-width: 1.0;" width="6" x="30" y="182.9072"/><text fill="#000000" font-family="sans-serif" font-size="11" lengthAdjust="spacingAndGlyphs" textLength="191" x="42" y="188.5645">«define» SERIAL_NUMBER_HL_POS 5</text><rect fill="none" height="6" style="stroke: #C82930; stroke-width: 1.0;" width="6" x="30" y="195.8623"/><text fill="#000000" font-family="sans-serif" font-size="11" lengthAdjust="spacingAndGlyphs" textLength="193" x="42" y="201.5195">«define» SERIAL_NUMBER_HH_POS 6</text><rect fill="none" height="6" style="stroke: #C82930; stroke-width: 1.0;" width="6" x="30" y="208.8174"/><text fill="#000000" font-family="sans-serif" font-size="11" lengthAdjust="spacingAndGlyphs" textLength="145" x="42" y="214.4746">«define» CRC_CODE_POS 7</text><rect fill="none" height="6" style="stroke: #C82930; stroke-width: 1.0;" width="6" x="30" y="221.7725"/><text fill="#000000" font-family="sans-serif" font-size="11" lengthAdjust="spacingAndGlyphs" textLength="195" x="42" y="227.4297">«define» ROMCODE_BYTE_LENGTH 8</text><rect fill="none" height="6" style="stroke: #C82930; stroke-width: 1.0;" width="6" x="30" y="234.7275"/><text fill="#000000" font-family="sans-serif" font-size="11" lengthAdjust="spacingAndGlyphs" textLength="192" x="42" y="240.3848">«define» ROMCODE_BIT_LENGTH 64</text><rect fill="none" height="6" style="stroke: #C82930; stroke-width: 1.0;" width="6" x="30" y="247.6826"/><text fill="#000000" font-family="sans-serif" font-size="11" lengthAdjust="spacingAndGlyphs" textLength="191" x="42" y="253.3398">«define» MAX_DEVICE_COUNT 0xFF</text><rect fill="none" height="6" style="stroke: #C82930; stroke-width: 1.0;" width="6" x="30" y="260.6377"/><text fill="#000000" font-family="sans-serif" font-size="11" lengthAdjust="spacingAndGlyphs" text-decoration="underline" textLength="182" x="42" y="266.2949">numOfDeviceFound = 0 : uint16_t</text><line style="stroke: #000000; stroke-width: 1.0;" x1="42" x2="224" y1="268.2949" y2="268.2949"/><rect fill="none" height="6" style="stroke: #C82930; stroke-width: 1.0;" width="6" x="30" y="273.5928"/><text fill="#000000" font-family="sans-serif" font-size="11" lengthAdjust="spacingAndGlyphs" text-decoration="underline" textLength="348" x="42" y="279.25">foundROMCode[MAX_DEVICE_COUNT] : ONE_WIRE_ROM_CODE_t</text><line style="stroke: #000000; stroke-width: 1.0;" x1="42" x2="390" y1="281.25" y2="281.25"/><line style="stroke: #A80036; stroke-width: 1.5;" x1="23" x2="583" y1="285.5703" y2="285.5703"/><ellipse cx="33" cy="297.5479" fill="#84BE84" rx="3" ry="3" style="stroke: #038048; stroke-width: 1.0;"/><text fill="#000000" font-family="sans-serif" font-size="11" lengthAdjust="spacingAndGlyphs" textLength="186" x="42" y="300.2051">ResetPulse() : ONE_WIRE_STATUS_t</text><ellipse cx="33" cy="310.5029" fill="#84BE84" rx="3" ry="3" style="stroke: #038048; stroke-width: 1.0;"/><text fill="#000000" font-family="sans-serif" font-size="11" lengthAdjust="spacingAndGlyphs" textLength="183" x="42" y="313.1602">WriteByte(byteData : uint8_t) : void</text><ellipse cx="33" cy="323.458" fill="#84BE84" rx="3" ry="3" style="stroke: #038048; stroke-width: 1.0;"/><text fill="#000000" font-family="sans-serif" font-size="11" lengthAdjust="spacingAndGlyphs" textLength="103" x="42" y="326.1152">ReadByte() : uint8_t</text><ellipse cx="33" cy="336.4131" fill="#84BE84" rx="3" ry="3" style="stroke: #038048; stroke-width: 1.0;"/><text fill="#000000" font-family="sans-serif" font-size="11" lengthAdjust="spacingAndGlyphs" textLength="100" x="42" y="339.0703">SearchRom() : void</text><ellipse cx="33" cy="349.3682" fill="#84BE84" rx="3" ry="3" style="stroke: #038048; stroke-width: 1.0;"/><text fill="#000000" font-family="sans-serif" font-size="11" lengthAdjust="spacingAndGlyphs" textLength="199" x="42" y="352.0254">ReadRom() : ONE_WIRE_ROM_CODE_t</text><ellipse cx="33" cy="362.3232" fill="#84BE84" rx="3" ry="3" style="stroke: #038048; stroke-width: 1.0;"/><text fill="#000000" font-family="sans-serif" font-size="11" lengthAdjust="spacingAndGlyphs" textLength="333" x="42" y="364.9805">MatchRom(romCodeToMatch : ONE_WIRE_ROM_CODE_t) : void</text><ellipse cx="33" cy="375.2783" fill="#84BE84" rx="3" ry="3" style="stroke: #038048; stroke-width: 1.0;"/><text fill="#000000" font-family="sans-serif" font-size="11" lengthAdjust="spacingAndGlyphs" textLength="86" x="42" y="377.9355">SkipRom() : void</text><ellipse cx="33" cy="388.2334" fill="#84BE84" rx="3" ry="3" style="stroke: #038048; stroke-width: 1.0;"/><text fill="#000000" font-family="sans-serif" font-size="11" lengthAdjust="spacingAndGlyphs" textLength="101" x="42" y="390.8906">ReadSlot() : uint8_t</text><ellipse cx="33" cy="401.1885" fill="#84BE84" rx="3" ry="3" style="stroke: #038048; stroke-width: 1.0;"/><text fill="#000000" font-family="sans-serif" font-size="11" lengthAdjust="spacingAndGlyphs" textLength="198" x="42" y="403.8457">GetNumOfROMCodeFound() : uint8_t</text><ellipse cx="33" cy="414.1436" fill="#84BE84" rx="3" ry="3" style="stroke: #038048; stroke-width: 1.0;"/><text fill="#000000" font-family="sans-serif" font-size="11" lengthAdjust="spacingAndGlyphs" textLength="374" x="42" y="416.8008">GetROMCode(buffer : ONE_WIRE_ROM_CODE_t*, count : uint8_t) : void</text><rect fill="#F24D5C" height="6" style="stroke: #C82930; stroke-width: 1.0;" width="6" x="30" y="424.0986"/><text fill="#000000" font-family="sans-serif" font-size="11" lengthAdjust="spacingAndGlyphs" text-decoration="underline" textLength="508" x="42" y="429.7559">createROMStructFromBit(bitData[ROMCODE_BIT_LENGTH] : uint8_t[]) : ONE_WIRE_ROM_CODE_t</text><line style="stroke: #000000; stroke-width: 1.0;" x1="42" x2="550" y1="431.7559" y2="431.7559"/><rect fill="#F24D5C" height="6" style="stroke: #C82930; stroke-width: 1.0;" width="6" x="30" y="437.0537"/><text fill="#000000" font-family="sans-serif" font-size="11" lengthAdjust="spacingAndGlyphs" text-decoration="underline" textLength="536" x="42" y="442.7109">createROMStructFromByte(byteData[ROMCODE_BYTE_LENGTH] : uint8_t[]) : ONE_WIRE_ROM_CODE_t</text><line style="stroke: #000000; stroke-width: 1.0;" x1="42" x2="578" y1="444.7109" y2="444.7109"/><rect fill="#F24D5C" height="6" style="stroke: #C82930; stroke-width: 1.0;" width="6" x="30" y="450.0088"/><text fill="#000000" font-family="sans-serif" font-size="11" lengthAdjust="spacingAndGlyphs" text-decoration="underline" textLength="73" x="42" y="455.666">write0() : void</text><line style="stroke: #000000; stroke-width: 1.0;" x1="42" x2="115" y1="457.666" y2="457.666"/><rect fill="#F24D5C" height="6" style="stroke: #C82930; stroke-width: 1.0;" width="6" x="30" y="462.9639"/><text fill="#000000" font-family="sans-serif" font-size="11" lengthAdjust="spacingAndGlyphs" text-decoration="underline" textLength="73" x="42" y="468.6211">write1() : void</text><line style="stroke: #000000; stroke-width: 1.0;" x1="42" x2="115" y1="470.6211" y2="470.6211"/><rect fill="#F24D5C" height="6" style="stroke: #C82930; stroke-width: 1.0;" width="6" x="30" y="475.9189"/><text fill="#000000" font-family="sans-serif" font-size="11" lengthAdjust="spacingAndGlyphs" text-decoration="underline" textLength="92" x="42" y="481.5762">readBit() : uint8_t</text><line style="stroke: #000000; stroke-width: 1.0;" x1="42" x2="134" y1="483.5762" y2="483.5762"/><rect fill="#F24D5C" height="6" style="stroke: #C82930; stroke-width: 1.0;" width="6" x="30" y="488.874"/><text fill="#000000" font-family="sans-serif" font-size="11" lengthAdjust="spacingAndGlyphs" text-decoration="underline" textLength="444" x="42" y="494.5313">getByteArrayFromRomCode(data : ONE_WIRE_ROM_CODE_t, buffer : uint8_t*) : void</text><line style="stroke: #000000; stroke-width: 1.0;" x1="42" x2="486" y1="496.5313" y2="496.5313"/><rect fill="#F24D5C" height="6" style="stroke: #C82930; stroke-width: 1.0;" width="6" x="30" y="501.8291"/><text fill="#000000" font-family="sans-serif" font-size="11" lengthAdjust="spacingAndGlyphs" text-decoration="underline" textLength="229" x="42" y="507.4863">readPresensePulse() : ONE_WIRE_STATUS_t</text><line style="stroke: #000000; stroke-width: 1.0;" x1="42" x2="271" y1="509.4863" y2="509.4863"/><rect fill="#F24D5C" height="6" style="stroke: #C82930; stroke-width: 1.0;" width="6" x="30" y="514.7842"/><text fill="#000000" font-family="sans-serif" font-size="11" lengthAdjust="spacingAndGlyphs" text-decoration="underline" textLength="234" x="42" y="520.4414">searchROMBitCheck() : SearchROMBitState_t</text><line style="stroke: #000000; stroke-width: 1.0;" x1="42" x2="276" y1="522.4414" y2="522.4414"/><rect fill="#F24D5C" height="6" style="stroke: #C82930; stroke-width: 1.0;" width="6" x="30" y="527.7393"/><text fill="#000000" font-family="sans-serif" font-size="11" lengthAdjust="spacingAndGlyphs" text-decoration="underline" textLength="463" x="42" y="533.3965">isAllPatternFinished(bitState[ROMCODE_BIT_LENGTH] : SearchROMBitState_t[]) : uint8_t</text><line style="stroke: #000000; stroke-width: 1.0;" x1="42" x2="505" y1="535.3965" y2="535.3965"/><!--class EnumONE_WIRE_STATUS_t--><rect fill="#FEFECE" filter="url(#f6it1idn0ru0k)" height="73.9102" id="EnumONE_WIRE_STATUS_t" style="stroke: #A80036; stroke-width: 1.5;" width="151" x="30.5" y="872.1992"/><ellipse cx="45.5" cy="888.1992" fill="#EB937F" rx="11" ry="11" style="stroke: #A80036; stroke-width: 1.0;"/><path d="M49.6143,894.1992 L41.8945,894.1992 L41.8945,881.8062 L49.6143,881.8062 L49.6143,883.9644 L44.3433,883.9644 L44.3433,886.6372 L49.1162,886.6372 L49.1162,888.7954 L44.3433,888.7954 L44.3433,892.041 L49.6143,892.041 Z "/><text fill="#000000" font-family="sans-serif" font-size="12" lengthAdjust="spacingAndGlyphs" textLength="119" x="59.5" y="892.7344">ONE_WIRE_STATUS_t</text><line style="stroke: #A80036; stroke-width: 1.5;" x1="31.5" x2="180.5" y1="904.1992" y2="904.1992"/><text fill="#000000" font-family="sans-serif" font-size="11" lengthAdjust="spacingAndGlyphs" textLength="108" x="36.5" y="918.834">ONE_WIRE_SUCCESS</text><text fill="#000000" font-family="sans-serif" font-size="11" lengthAdjust="spacingAndGlyphs" textLength="83" x="36.5" y="931.7891">ONE_WIRE_FAIL</text><line style="stroke: #A80036; stroke-width: 1.5;" x1="31.5" x2="180.5" y1="938.1094" y2="938.1094"/><!--class StructONE_WIRE_ROM_CODE_t--><rect fill="#FEFECE" filter="url(#f6it1idn0ru0k)" height="112.7754" id="StructONE_WIRE_ROM_CODE_t" style="stroke: #A80036; stroke-width: 1.5;" width="173" x="216.5" y="852.6992"/><ellipse cx="231.5" cy="868.6992" fill="#0000FF" rx="11" ry="11" style="stroke: #A80036; stroke-width: 1.0;"/><path d="M230.9834,869.2622 Q229.1323,868.5566 228.4766,867.7805 Q227.8208,867.0044 227.8208,865.6929 Q227.8208,864.0078 228.8999,863.0449 Q229.979,862.082 231.8633,862.082 Q232.7183,862.082 233.5732,862.2771 Q234.4282,862.4722 235.2666,862.854 L235.2666,865.2446 Q234.478,864.6885 233.6646,864.3979 Q232.8511,864.1074 232.0542,864.1074 Q231.166,864.1074 230.6929,864.4644 Q230.2197,864.8213 230.2197,865.4854 Q230.2197,866 230.5642,866.3362 Q230.9087,866.6724 232.0044,867.0791 L233.0586,867.4775 Q234.5527,868.0254 235.2583,868.9302 Q235.9639,869.835 235.9639,871.2129 Q235.9639,873.0889 234.8557,874.0144 Q233.7476,874.9399 231.5063,874.9399 Q230.585,874.9399 229.6594,874.72 Q228.7339,874.5 227.8706,874.0684 L227.8706,871.5366 Q228.8501,872.2339 229.7673,872.5742 Q230.6846,872.9146 231.5811,872.9146 Q232.4858,872.9146 232.9839,872.5037 Q233.4819,872.0928 233.4819,871.354 Q233.4819,870.7979 233.1499,870.3787 Q232.8179,869.9595 232.187,869.7188 Z "/><text fill="#000000" font-family="sans-serif" font-size="12" lengthAdjust="spacingAndGlyphs" textLength="141" x="245.5" y="873.2344">ONE_WIRE_ROM_CODE_t</text><line style="stroke: #A80036; stroke-width: 1.5;" x1="217.5" x2="388.5" y1="884.6992" y2="884.6992"/><ellipse cx="227.5" cy="896.6768" fill="none" rx="3" ry="3" style="stroke: #038048; stroke-width: 1.0;"/><text fill="#000000" font-family="sans-serif" font-size="11" lengthAdjust="spacingAndGlyphs" textLength="115" x="236.5" y="899.334">Family_Code : uint8_t</text><ellipse cx="227.5" cy="909.6318" fill="none" rx="3" ry="3" style="stroke: #038048; stroke-width: 1.0;"/><text fill="#000000" font-family="sans-serif" font-size="11" lengthAdjust="spacingAndGlyphs" textLength="140" x="236.5" y="912.2891">SerialNumber_H : uint16_t</text><ellipse cx="227.5" cy="922.5869" fill="none" rx="3" ry="3" style="stroke: #038048; stroke-width: 1.0;"/><text fill="#000000" font-family="sans-serif" font-size="11" lengthAdjust="spacingAndGlyphs" textLength="141" x="236.5" y="925.2441">SerialNumber_M : uint16_t</text><ellipse cx="227.5" cy="935.542" fill="none" rx="3" ry="3" style="stroke: #038048; stroke-width: 1.0;"/><text fill="#000000" font-family="sans-serif" font-size="11" lengthAdjust="spacingAndGlyphs" textLength="138" x="236.5" y="938.1992">SerialNumber_L : uint16_t</text><ellipse cx="227.5" cy="948.4971" fill="none" rx="3" ry="3" style="stroke: #038048; stroke-width: 1.0;"/><text fill="#000000" font-family="sans-serif" font-size="11" lengthAdjust="spacingAndGlyphs" textLength="104" x="236.5" y="951.1543">CRC_Code : uint8_t</text><line style="stroke: #A80036; stroke-width: 1.5;" x1="217.5" x2="388.5" y1="957.4746" y2="957.4746"/><!--class EnumSearchROMBitState_t--><rect fill="#FEFECE" filter="url(#f6it1idn0ru0k)" height="125.7305" id="EnumSearchROMBitState_t" style="stroke: #A80036; stroke-width: 1.5;" width="149" x="424.5" y="846.1992"/><ellipse cx="439.5" cy="862.1992" fill="#EB937F" rx="11" ry="11" style="stroke: #A80036; stroke-width: 1.0;"/><path d="M443.6143,868.1992 L435.8945,868.1992 L435.8945,855.8062 L443.6143,855.8062 L443.6143,857.9644 L438.3433,857.9644 L438.3433,860.6372 L443.1162,860.6372 L443.1162,862.7954 L438.3433,862.7954 L438.3433,866.041 L443.6143,866.041 Z "/><text fill="#000000" font-family="sans-serif" font-size="12" lengthAdjust="spacingAndGlyphs" textLength="117" x="453.5" y="866.7344">SearchROMBitState_t</text><line style="stroke: #A80036; stroke-width: 1.5;" x1="425.5" x2="572.5" y1="878.1992" y2="878.1992"/><text fill="#000000" font-family="sans-serif" font-size="11" lengthAdjust="spacingAndGlyphs" textLength="87" x="430.5" y="892.834">NOT_SEARCHED</text><text fill="#000000" font-family="sans-serif" font-size="11" lengthAdjust="spacingAndGlyphs" textLength="65" x="430.5" y="905.7891">BOTH_EXIST</text><text fill="#000000" font-family="sans-serif" font-size="11" lengthAdjust="spacingAndGlyphs" textLength="78" x="430.5" y="918.7441">ONLY_1_EXIST</text><text fill="#000000" font-family="sans-serif" font-size="11" lengthAdjust="spacingAndGlyphs" textLength="78" x="430.5" y="931.6992">ONLY_0_EXIST</text><text fill="#000000" font-family="sans-serif" font-size="11" lengthAdjust="spacingAndGlyphs" textLength="93" x="430.5" y="944.6543">BOTH_SEARCHED</text><text fill="#000000" font-family="sans-serif" font-size="11" lengthAdjust="spacingAndGlyphs" textLength="61" x="430.5" y="957.6094">NO_DEVICE</text><line style="stroke: #A80036; stroke-width: 1.5;" x1="425.5" x2="572.5" y1="963.9297" y2="963.9297"/><!--class EnumGPIO_STATE_t--><rect fill="#FEFECE" filter="url(#f6it1idn0ru0k)" height="73.9102" id="EnumGPIO_STATE_t" style="stroke: #A80036; stroke-width: 1.5;" width="113" x="660.5" y="1278.1992"/><ellipse cx="675.5" cy="1294.1992" fill="#EB937F" rx="11" ry="11" style="stroke: #A80036; stroke-width: 1.0;"/><path d="M679.6143,1300.1992 L671.8945,1300.1992 L671.8945,1287.8062 L679.6143,1287.8062 L679.6143,1289.9644 L674.3433,1289.9644 L674.3433,1292.6372 L679.1162,1292.6372 L679.1162,1294.7954 L674.3433,1294.7954 L674.3433,1298.041 L679.6143,1298.041 Z "/><text fill="#000000" font-family="sans-serif" font-size="12" lengthAdjust="spacingAndGlyphs" textLength="81" x="689.5" y="1298.7344">GPIO_STATE_t</text><line style="stroke: #A80036; stroke-width: 1.5;" x1="661.5" x2="772.5" y1="1310.1992" y2="1310.1992"/><text fill="#000000" font-family="sans-serif" font-size="11" lengthAdjust="spacingAndGlyphs" textLength="86" x="666.5" y="1324.834">GPIO_ASSERTED</text><text fill="#000000" font-family="sans-serif" font-size="11" lengthAdjust="spacingAndGlyphs" textLength="83" x="666.5" y="1337.7891">GPIO_NEGATED</text><line style="stroke: #A80036; stroke-width: 1.5;" x1="661.5" x2="772.5" y1="1344.1094" y2="1344.1094"/><!--class ModuleGPIO_Wrapper--><rect fill="#FEFECE" filter="url(#f6it1idn0ru0k)" height="112.7754" id="ModuleGPIO_Wrapper" style="stroke: #A80036; stroke-width: 1.5;" width="217" x="608.5" y="852.6992"/><ellipse cx="670.75" cy="868.6992" fill="#008000" rx="11" ry="11" style="stroke: #A80036; stroke-width: 1.0;"/><path d="M666.4639,862.3062 L669.3857,862.3062 L670.8633,867.7432 L672.3325,862.3062 L675.271,862.3062 L675.271,874.6992 L673.1626,874.6992 L673.1626,864.7715 L671.8511,870.1919 L669.9004,870.1919 L668.5723,864.7715 L668.5723,874.6992 L666.4639,874.6992 Z "/><text fill="#000000" font-family="sans-serif" font-size="12" lengthAdjust="spacingAndGlyphs" textLength="84" x="691.25" y="873.2344">GPIO_Wrapper</text><line style="stroke: #A80036; stroke-width: 1.5;" x1="609.5" x2="824.5" y1="884.6992" y2="884.6992"/><line style="stroke: #A80036; stroke-width: 1.5;" x1="609.5" x2="824.5" y1="892.6992" y2="892.6992"/><ellipse cx="619.5" cy="904.6768" fill="#84BE84" rx="3" ry="3" style="stroke: #038048; stroke-width: 1.0;"/><text fill="#000000" font-family="sans-serif" font-size="11" lengthAdjust="spacingAndGlyphs" textLength="129" x="628.5" y="907.334">«weak»AssertPin() : void</text><ellipse cx="619.5" cy="917.6318" fill="#84BE84" rx="3" ry="3" style="stroke: #038048; stroke-width: 1.0;"/><text fill="#000000" font-family="sans-serif" font-size="11" lengthAdjust="spacingAndGlyphs" textLength="131" x="628.5" y="920.2891">«weak»NegatePin() : void</text><ellipse cx="619.5" cy="930.5869" fill="#84BE84" rx="3" ry="3" style="stroke: #038048; stroke-width: 1.0;"/><text fill="#000000" font-family="sans-serif" font-size="11" lengthAdjust="spacingAndGlyphs" textLength="160" x="628.5" y="933.2441">«weak»SetPin2TxMode() : void</text><ellipse cx="619.5" cy="943.542" fill="#84BE84" rx="3" ry="3" style="stroke: #038048; stroke-width: 1.0;"/><text fill="#000000" font-family="sans-serif" font-size="11" lengthAdjust="spacingAndGlyphs" textLength="160" x="628.5" y="946.1992">«weak»SetPin2RxMode() : void</text><ellipse cx="619.5" cy="956.4971" fill="#84BE84" rx="3" ry="3" style="stroke: #038048; stroke-width: 1.0;"/><text fill="#000000" font-family="sans-serif" font-size="11" lengthAdjust="spacingAndGlyphs" textLength="191" x="628.5" y="959.1543">«weak»GetPinState() : GPIO_STATE_t</text><!--class ModuleWait_Wrapper--><rect fill="#FEFECE" filter="url(#f6it1idn0ru0k)" height="86.8652" id="ModuleWait_Wrapper" style="stroke: #A80036; stroke-width: 1.5;" width="300" x="866" y="865.6992"/><ellipse cx="971.75" cy="881.6992" fill="#008000" rx="11" ry="11" style="stroke: #A80036; stroke-width: 1.0;"/><path d="M967.4639,875.3062 L970.3857,875.3062 L971.8633,880.7432 L973.3325,875.3062 L976.271,875.3062 L976.271,887.6992 L974.1626,887.6992 L974.1626,877.7715 L972.8511,883.1919 L970.9004,883.1919 L969.5723,877.7715 L969.5723,887.6992 L967.4639,887.6992 Z "/><text fill="#000000" font-family="sans-serif" font-size="12" lengthAdjust="spacingAndGlyphs" textLength="80" x="992.25" y="886.2344">Wait_Wrapper</text><line style="stroke: #A80036; stroke-width: 1.5;" x1="867" x2="1165" y1="897.6992" y2="897.6992"/><line style="stroke: #A80036; stroke-width: 1.5;" x1="867" x2="1165" y1="905.6992" y2="905.6992"/><ellipse cx="877" cy="917.6768" fill="#84BE84" rx="3" ry="3" style="stroke: #038048; stroke-width: 1.0;"/><text fill="#000000" font-family="sans-serif" font-size="11" lengthAdjust="spacingAndGlyphs" textLength="274" x="886" y="920.334">«weak»Wait_us(unsigned short microSecond) : void</text><ellipse cx="877" cy="930.6318" fill="#84BE84" rx="3" ry="3" style="stroke: #038048; stroke-width: 1.0;"/><text fill="#000000" font-family="sans-serif" font-size="11" lengthAdjust="spacingAndGlyphs" textLength="170" x="886" y="933.2891">«weak»ClearTimerCount() : void</text><ellipse cx="877" cy="943.5869" fill="#84BE84" rx="3" ry="3" style="stroke: #038048; stroke-width: 1.0;"/><text fill="#000000" font-family="sans-serif" font-size="11" lengthAdjust="spacingAndGlyphs" textLength="219" x="886" y="946.2441">«weak»GetTimerCount() : unsigned short</text><!--class HeaderOneWireSpecifications--><rect fill="#FEFECE" filter="url(#f6it1idn0ru0k)" height="618.0234" id="HeaderOneWireSpecifications" style="stroke: #A80036; stroke-width: 1.5;" width="229" x="1201.5" y="600.1992"/><ellipse cx="1249.25" cy="616.1992" fill="#FF0000" rx="11" ry="11" style="stroke: #A80036; stroke-width: 1.0;"/><path d="M1245.3872,609.8062 L1247.8359,609.8062 L1247.8359,614.5293 L1250.8989,614.5293 L1250.8989,609.8062 L1253.3477,609.8062 L1253.3477,622.1992 L1250.8989,622.1992 L1250.8989,616.6875 L1247.8359,616.6875 L1247.8359,622.1992 L1245.3872,622.1992 Z "/><text fill="#000000" font-family="sans-serif" font-size="12" lengthAdjust="spacingAndGlyphs" textLength="125" x="1269.75" y="620.7344">OneWireSpecifications</text><line style="stroke: #A80036; stroke-width: 1.5;" x1="1202.5" x2="1429.5" y1="632.1992" y2="632.1992"/><ellipse cx="1212.5" cy="644.1768" fill="none" rx="3" ry="3" style="stroke: #038048; stroke-width: 1.0;"/><text fill="#000000" font-family="sans-serif" font-size="11" lengthAdjust="spacingAndGlyphs" textLength="118" x="1221.5" y="646.834">«define» T_SLOT     90</text><ellipse cx="1212.5" cy="657.1318" fill="none" rx="3" ry="3" style="stroke: #038048; stroke-width: 1.0;"/><text fill="#000000" font-family="sans-serif" font-size="11" lengthAdjust="spacingAndGlyphs" textLength="143" x="1221.5" y="659.7891">«define» T_SLOT_MAX 120</text><ellipse cx="1212.5" cy="670.0869" fill="none" rx="3" ry="3" style="stroke: #038048; stroke-width: 1.0;"/><text fill="#000000" font-family="sans-serif" font-size="11" lengthAdjust="spacingAndGlyphs" textLength="132" x="1221.5" y="672.7441">«define» T_SLOT_MIN 60</text><text fill="#000000" font-family="sans-serif" font-size="11" lengthAdjust="spacingAndGlyphs" textLength="0" x="1224.5" y="685.6992"/><ellipse cx="1212.5" cy="695.9971" fill="none" rx="3" ry="3" style="stroke: #038048; stroke-width: 1.0;"/><text fill="#000000" font-family="sans-serif" font-size="11" lengthAdjust="spacingAndGlyphs" textLength="92" x="1221.5" y="698.6543">«define» T_REC 1</text><text fill="#000000" font-family="sans-serif" font-size="11" lengthAdjust="spacingAndGlyphs" textLength="0" x="1224.5" y="711.6094"/><ellipse cx="1212.5" cy="721.9072" fill="none" rx="3" ry="3" style="stroke: #038048; stroke-width: 1.0;"/><text fill="#000000" font-family="sans-serif" font-size="11" lengthAdjust="spacingAndGlyphs" textLength="121" x="1221.5" y="724.5645">«define» T_LOW0     90</text><ellipse cx="1212.5" cy="734.8623" fill="none" rx="3" ry="3" style="stroke: #038048; stroke-width: 1.0;"/><text fill="#000000" font-family="sans-serif" font-size="11" lengthAdjust="spacingAndGlyphs" textLength="146" x="1221.5" y="737.5195">«define» T_LOW0_MAX 120</text><ellipse cx="1212.5" cy="747.8174" fill="none" rx="3" ry="3" style="stroke: #038048; stroke-width: 1.0;"/><text fill="#000000" font-family="sans-serif" font-size="11" lengthAdjust="spacingAndGlyphs" textLength="135" x="1221.5" y="750.4746">«define» T_LOW0_MIN 60</text><text fill="#000000" font-family="sans-serif" font-size="11" lengthAdjust="spacingAndGlyphs" textLength="0" x="1224.5" y="763.4297"/><ellipse cx="1212.5" cy="773.7275" fill="none" rx="3" ry="3" style="stroke: #038048; stroke-width: 1.0;"/><text fill="#000000" font-family="sans-serif" font-size="11" lengthAdjust="spacingAndGlyphs" textLength="114" x="1221.5" y="776.3848">«define» T_LOW1     8</text><ellipse cx="1212.5" cy="786.6826" fill="none" rx="3" ry="3" style="stroke: #038048; stroke-width: 1.0;"/><text fill="#000000" font-family="sans-serif" font-size="11" lengthAdjust="spacingAndGlyphs" textLength="139" x="1221.5" y="789.3398">«define» T_LOW1_MAX 15</text><ellipse cx="1212.5" cy="799.6377" fill="none" rx="3" ry="3" style="stroke: #038048; stroke-width: 1.0;"/><text fill="#000000" font-family="sans-serif" font-size="11" lengthAdjust="spacingAndGlyphs" textLength="128" x="1221.5" y="802.2949">«define» T_LOW1_MIN 1</text><text fill="#000000" font-family="sans-serif" font-size="11" lengthAdjust="spacingAndGlyphs" textLength="0" x="1224.5" y="815.25"/><ellipse cx="1212.5" cy="825.5479" fill="none" rx="3" ry="3" style="stroke: #038048; stroke-width: 1.0;"/><text fill="#000000" font-family="sans-serif" font-size="11" lengthAdjust="spacingAndGlyphs" textLength="104" x="1221.5" y="828.2051">«define» T_INT      1</text><text fill="#000000" font-family="sans-serif" font-size="11" lengthAdjust="spacingAndGlyphs" textLength="0" x="1224.5" y="841.1602"/><ellipse cx="1212.5" cy="851.458" fill="none" rx="3" ry="3" style="stroke: #038048; stroke-width: 1.0;"/><text fill="#000000" font-family="sans-serif" font-size="11" lengthAdjust="spacingAndGlyphs" textLength="86" x="1221.5" y="854.1152">«define» T_RC 2</text><text fill="#000000" font-family="sans-serif" font-size="11" lengthAdjust="spacingAndGlyphs" textLength="0" x="1224.5" y="867.0703"/><ellipse cx="1212.5" cy="877.3682" fill="none" rx="3" ry="3" style="stroke: #038048; stroke-width: 1.0;"/><text fill="#000000" font-family="sans-serif" font-size="11" lengthAdjust="spacingAndGlyphs" textLength="100" x="1221.5" y="880.0254">«define» T_RDV 15</text><text fill="#000000" font-family="sans-serif" font-size="11" lengthAdjust="spacingAndGlyphs" textLength="0" x="1224.5" y="892.9805"/><ellipse cx="1212.5" cy="903.2783" fill="none" rx="3" ry="3" style="stroke: #038048; stroke-width: 1.0;"/><text fill="#000000" font-family="sans-serif" font-size="11" lengthAdjust="spacingAndGlyphs" textLength="113" x="1221.5" y="905.9355">«define» T_RSTH 480</text><text fill="#000000" font-family="sans-serif" font-size="11" lengthAdjust="spacingAndGlyphs" textLength="0" x="1224.5" y="918.8906"/><ellipse cx="1212.5" cy="929.1885" fill="none" rx="3" ry="3" style="stroke: #038048; stroke-width: 1.0;"/><text fill="#000000" font-family="sans-serif" font-size="11" lengthAdjust="spacingAndGlyphs" textLength="111" x="1221.5" y="931.8457">«define» T_RSTL 480</text><text fill="#000000" font-family="sans-serif" font-size="11" lengthAdjust="spacingAndGlyphs" textLength="0" x="1224.5" y="944.8008"/><ellipse cx="1212.5" cy="955.0986" fill="none" rx="3" ry="3" style="stroke: #038048; stroke-width: 1.0;"/><text fill="#000000" font-family="sans-serif" font-size="11" lengthAdjust="spacingAndGlyphs" textLength="119" x="1221.5" y="957.7559">«define» T_PDHIGH 40</text><ellipse cx="1212.5" cy="968.0537" fill="none" rx="3" ry="3" style="stroke: #038048; stroke-width: 1.0;"/><text fill="#000000" font-family="sans-serif" font-size="11" lengthAdjust="spacingAndGlyphs" textLength="149" x="1221.5" y="970.7109">«define» T_PDHIGH_MAX 60</text><ellipse cx="1212.5" cy="981.0088" fill="none" rx="3" ry="3" style="stroke: #038048; stroke-width: 1.0;"/><text fill="#000000" font-family="sans-serif" font-size="11" lengthAdjust="spacingAndGlyphs" textLength="145" x="1221.5" y="983.666">«define» T_PDHIGH_MIN 15</text><text fill="#000000" font-family="sans-serif" font-size="11" lengthAdjust="spacingAndGlyphs" textLength="0" x="1224.5" y="996.6211"/><ellipse cx="1212.5" cy="1006.9189" fill="none" rx="3" ry="3" style="stroke: #038048; stroke-width: 1.0;"/><text fill="#000000" font-family="sans-serif" font-size="11" lengthAdjust="spacingAndGlyphs" textLength="123" x="1221.5" y="1009.5762">«define» T_PDLOW 150</text><ellipse cx="1212.5" cy="1019.874" fill="none" rx="3" ry="3" style="stroke: #038048; stroke-width: 1.0;"/><text fill="#000000" font-family="sans-serif" font-size="11" lengthAdjust="spacingAndGlyphs" textLength="153" x="1221.5" y="1022.5313">«define» T_PDLOW_MAX 240</text><ellipse cx="1212.5" cy="1032.8291" fill="none" rx="3" ry="3" style="stroke: #038048; stroke-width: 1.0;"/><text fill="#000000" font-family="sans-serif" font-size="11" lengthAdjust="spacingAndGlyphs" textLength="142" x="1221.5" y="1035.4863">«define» T_PDLOW_MIN 60</text><text fill="#000000" font-family="sans-serif" font-size="11" lengthAdjust="spacingAndGlyphs" textLength="0" x="1224.5" y="1048.4414"/><ellipse cx="1212.5" cy="1058.7393" fill="none" rx="3" ry="3" style="stroke: #038048; stroke-width: 1.0;"/><text fill="#000000" font-family="sans-serif" font-size="11" lengthAdjust="spacingAndGlyphs" textLength="189" x="1221.5" y="1061.3965">«define» CODE_SEARCH_ROM 0xF0</text><text fill="#000000" font-family="sans-serif" font-size="11" lengthAdjust="spacingAndGlyphs" textLength="0" x="1224.5" y="1074.3516"/><ellipse cx="1212.5" cy="1084.6494" fill="none" rx="3" ry="3" style="stroke: #038048; stroke-width: 1.0;"/><text fill="#000000" font-family="sans-serif" font-size="11" lengthAdjust="spacingAndGlyphs" textLength="176" x="1221.5" y="1087.3066">«define» CODE_READ_ROM 0x33</text><text fill="#000000" font-family="sans-serif" font-size="11" lengthAdjust="spacingAndGlyphs" textLength="0" x="1224.5" y="1100.2617"/><ellipse cx="1212.5" cy="1110.5596" fill="none" rx="3" ry="3" style="stroke: #038048; stroke-width: 1.0;"/><text fill="#000000" font-family="sans-serif" font-size="11" lengthAdjust="spacingAndGlyphs" textLength="187" x="1221.5" y="1113.2168">«define» CODE_MATCH_ROM 0x55</text><text fill="#000000" font-family="sans-serif" font-size="11" lengthAdjust="spacingAndGlyphs" textLength="0" x="1224.5" y="1126.1719"/><ellipse cx="1212.5" cy="1136.4697" fill="none" rx="3" ry="3" style="stroke: #038048; stroke-width: 1.0;"/><text fill="#000000" font-family="sans-serif" font-size="11" lengthAdjust="spacingAndGlyphs" textLength="171" x="1221.5" y="1139.127">«define» CODE_SKIP_ROM 0xCC</text><text fill="#000000" font-family="sans-serif" font-size="11" lengthAdjust="spacingAndGlyphs" textLength="0" x="1224.5" y="1152.082"/><ellipse cx="1212.5" cy="1162.3799" fill="none" rx="3" ry="3" style="stroke: #038048; stroke-width: 1.0;"/><text fill="#000000" font-family="sans-serif" font-size="11" lengthAdjust="spacingAndGlyphs" textLength="203" x="1221.5" y="1165.0371">«define» CODE_ALARM_SEARCH 0xEC</text><text fill="#000000" font-family="sans-serif" font-size="11" lengthAdjust="spacingAndGlyphs" textLength="0" x="1224.5" y="1177.9922"/><text fill="#000000" font-family="sans-serif" font-size="11" lengthAdjust="spacingAndGlyphs" textLength="0" x="1224.5" y="1190.9473"/><ellipse cx="1212.5" cy="1201.2451" fill="none" rx="3" ry="3" style="stroke: #038048; stroke-width: 1.0;"/><text fill="#000000" font-family="sans-serif" font-size="11" lengthAdjust="spacingAndGlyphs" textLength="180" x="1221.5" y="1203.9023">«define» ROM_CODE_BYTE_SIZE 8</text><line style="stroke: #A80036; stroke-width: 1.5;" x1="1202.5" x2="1429.5" y1="1210.2227" y2="1210.2227"/><!--link ModuleOneWireDriver to EnumSearchROMBitState_t--><path d="M400.1768,552.7925 C402.5128,559.6534 404.792,566.4653 407,573.1992 C437.8098,667.1626 466.7919,778.1574 483.7135,846.1009 " fill="none" id="ModuleOneWireDriver-EnumSearchROMBitState_t" style="stroke: #A80036; stroke-width: 1.0;"/><polygon fill="#A80036" points="395.9138,540.3962,394.0824,547.3709,399.8162,551.744,401.6476,544.7693,395.9138,540.3962" style="stroke: #A80036; stroke-width: 1.0;"/><!--link ModuleOneWireDriver to EnumONE_WIRE_STATUS_t--><path d="M205.8482,552.8007 C203.5048,559.6592 201.2173,566.4683 199,573.1992 C163.6809,680.4136 130.4645,809.7402 115.0322,872.0584 " fill="none" id="ModuleOneWireDriver-EnumONE_WIRE_STATUS_t" style="stroke: #A80036; stroke-width: 1.0;"/><polygon fill="#FFFFFF" points="210.1234,540.4084,204.3853,544.7758,206.2098,551.7523,211.9479,547.3849,210.1234,540.4084" style="stroke: #A80036; stroke-width: 1.0;"/><!--link ModuleOneWireDriver to StructONE_WIRE_ROM_CODE_t--><path d="M303,553.4285 C303,663.8621 303,783.816 303,852.4074 " fill="none" id="ModuleOneWireDriver-StructONE_WIRE_ROM_CODE_t" style="stroke: #A80036; stroke-width: 1.0;"/><polygon fill="#FFFFFF" points="303,540.3595,299,546.3595,303,552.3595,307,546.3595,303,540.3595" style="stroke: #A80036; stroke-width: 1.0;"/><!--link ModuleGPIO_Wrapper to EnumGPIO_STATE_t--><path d="M717,979.2132 C717,1065.889 717,1210.3275 717,1278.0346 " fill="none" id="ModuleGPIO_Wrapper-EnumGPIO_STATE_t" style="stroke: #A80036; stroke-width: 1.0;"/><polygon fill="#FFFFFF" points="717,966.0793,713,972.0793,717,978.0793,721,972.0793,717,966.0793" style="stroke: #A80036; stroke-width: 1.0;"/><!--link ModuleOneWireDriver to ModuleWait_Wrapper--><path d="M596.2329,400.8518 C688.5975,442.829 785.357,499.482 858,573.1992 C941.7033,658.1402 986.9418,795.7849 1005.5967,865.601 " fill="none" id="ModuleOneWireDriver-ModuleWait_Wrapper" style="stroke: #A80036; stroke-width: 1.0;"/><polygon fill="#A80036" points="584.1148,395.4162,587.9522,401.5215,595.0637,400.3275,591.2264,394.2222,584.1148,395.4162" style="stroke: #A80036; stroke-width: 1.0;"/><!--link ModuleOneWireDriver to ModuleGPIO_Wrapper--><path d="M584.5703,551.1003 C589.938,558.3908 595.0936,565.761 600,573.1992 C658.3295,661.6274 691.0156,782.3709 706.2385,852.446 " fill="none" id="ModuleOneWireDriver-ModuleGPIO_Wrapper" style="stroke: #A80036; stroke-width: 1.0;"/><polygon fill="#A80036" points="576.5584,540.4772,576.9776,547.6761,583.784,550.058,583.3648,542.8591,576.5584,540.4772" style="stroke: #A80036; stroke-width: 1.0;"/><!--link ModuleOneWireDriver to HeaderOneWireSpecifications--><path d="M596.9731,364.1186 C817.4744,415.7198 1095.5427,493.4296 1182,573.1992 C1191.0005,581.5035 1199.4073,590.4922 1207.2587,600.0129 " fill="none" id="ModuleOneWireDriver-HeaderOneWireSpecifications" style="stroke: #A80036; stroke-width: 1.0;"/><polygon fill="#A80036" points="584.1985,361.1431,589.1346,366.4,595.8856,363.8654,590.9495,358.6085,584.1985,361.1431" style="stroke: #A80036; stroke-width: 1.0;"/><!--
@startuml

title OneWireDriver Module
package "OneWireDriver.h, OneWireDriver.c"{
  class "OneWireDriver" as ModuleOneWireDriver<<M,Green>>{
    +ResetPulse() : ONE_WIRE_STATUS_t
    +WriteByte(byteData : uint8_t) : void
    +ReadByte() : uint8_t
    +SearchRom() : void
    +ReadRom() : ONE_WIRE_ROM_CODE_t
    +MatchRom(romCodeToMatch : ONE_WIRE_ROM_CODE_t) : void
    +SkipRom() : void
    +ReadSlot() : uint8_t
    +GetNumOfROMCodeFound() : uint8_t
    +GetROMCode(buffer : ONE_WIRE_ROM_CODE_t*, count : uint8_t) : void
    -<<define>> BYTE_SIZE 8
    -<<define>> FAMILY_CODE_POS 0
    -<<define>> SERIAL_NUMBER_LL_POS 1
    -<<define>> SERIAL_NUMBER_LH_POS 2
    -<<define>> SERIAL_NUMBER_ML_POS 3
    -<<define>> SERIAL_NUMBER_MH_POS 4
    -<<define>> SERIAL_NUMBER_HL_POS 5
    -<<define>> SERIAL_NUMBER_HH_POS 6
    -<<define>> CRC_CODE_POS 7
    -<<define>> ROMCODE_BYTE_LENGTH 8
    -<<define>> ROMCODE_BIT_LENGTH 64
    -<<define>> MAX_DEVICE_COUNT 0xFF
    -{static}createROMStructFromBit(bitData[ROMCODE_BIT_LENGTH] : uint8_t[]) : ONE_WIRE_ROM_CODE_t
    -{static}createROMStructFromByte(byteData[ROMCODE_BYTE_LENGTH] : uint8_t[]) : ONE_WIRE_ROM_CODE_t
    -{static}numOfDeviceFound = 0 : uint16_t
    -{static}foundROMCode[MAX_DEVICE_COUNT] : ONE_WIRE_ROM_CODE_t
    -{static}write0() : void
    -{static}write1() : void
    -{static}readBit() : uint8_t
    -{static}getByteArrayFromRomCode(data : ONE_WIRE_ROM_CODE_t, buffer : uint8_t*) : void
    -{static}readPresensePulse() : ONE_WIRE_STATUS_t
    -{static}searchROMBitCheck() : SearchROMBitState_t
    -{static}isAllPatternFinished(bitState[ROMCODE_BIT_LENGTH] : SearchROMBitState_t[]) : uint8_t
  }
  enum "ONE_WIRE_STATUS_t" as EnumONE_WIRE_STATUS_t{
    ONE_WIRE_SUCCESS
  	ONE_WIRE_FAIL
  }
  class "ONE_WIRE_ROM_CODE_t" as StructONE_WIRE_ROM_CODE_t<<S,Blue>>{
  	+Family_Code : uint8_t
  	+SerialNumber_H : uint16_t
  	+SerialNumber_M : uint16_t
  	+SerialNumber_L : uint16_t
  	+CRC_Code : uint8_t
  }
  enum "SearchROMBitState_t" as EnumSearchROMBitState_t{
  	NOT_SEARCHED
  	BOTH_EXIST
  	ONLY_1_EXIST
  	ONLY_0_EXIST
  	BOTH_SEARCHED
  	NO_DEVICE
  }

  ModuleOneWireDriver *- - EnumSearchROMBitState_t
  ModuleOneWireDriver o- - EnumONE_WIRE_STATUS_t
  ModuleOneWireDriver o- - StructONE_WIRE_ROM_CODE_t
}

package "GPIO_Wrapper.h, GPIO_Wrapper.c"{
  enum "GPIO_STATE_t" as EnumGPIO_STATE_t{
  	GPIO_ASSERTED
  	GPIO_NEGATED
  }
  class "GPIO_Wrapper" as ModuleGPIO_Wrapper<<M,Green>>{
    +<<weak>>AssertPin() : void
    +<<weak>>NegatePin() : void
    +<<weak>>SetPin2TxMode() : void
    +<<weak>>SetPin2RxMode() : void
    +<<weak>>GetPinState() : GPIO_STATE_t
  }

  ModuleGPIO_Wrapper o- - EnumGPIO_STATE_t
}

package "Wait_Wrapper.h, Wait_Wrapper.c"{
  class "Wait_Wrapper" as ModuleWait_Wrapper<<M,Green>>{
    +<<weak>>Wait_us(unsigned short microSecond) : void
    +<<weak>>ClearTimerCount() : void
    +<<weak>>GetTimerCount() : unsigned short
  }
}

package "OneWireSpecifications.h"{
  class "OneWireSpecifications" as HeaderOneWireSpecifications<<H,Red>>{

+<<define>> T_SLOT     90
+<<define>> T_SLOT_MAX 120
+<<define>> T_SLOT_MIN 60

+<<define>> T_REC 1

+<<define>> T_LOW0     90
+<<define>> T_LOW0_MAX 120
+<<define>> T_LOW0_MIN 60

+<<define>> T_LOW1     8
+<<define>> T_LOW1_MAX 15
+<<define>> T_LOW1_MIN 1

+<<define>> T_INT      1

+<<define>> T_RC 2

+<<define>> T_RDV 15

+<<define>> T_RSTH 480

+<<define>> T_RSTL 480

+<<define>> T_PDHIGH 40
+<<define>> T_PDHIGH_MAX 60
+<<define>> T_PDHIGH_MIN 15

+<<define>> T_PDLOW 150
+<<define>> T_PDLOW_MAX 240
+<<define>> T_PDLOW_MIN 60

+<<define>> CODE_SEARCH_ROM 0xF0

+<<define>> CODE_READ_ROM 0x33

+<<define>> CODE_MATCH_ROM 0x55

+<<define>> CODE_SKIP_ROM 0xCC

+<<define>> CODE_ALARM_SEARCH 0xEC


+<<define>> ROM_CODE_BYTE_SIZE 8
  }
}

ModuleOneWireDriver *- - ModuleWait_Wrapper
ModuleOneWireDriver *- - ModuleGPIO_Wrapper
ModuleOneWireDriver *- - HeaderOneWireSpecifications
@enduml

PlantUML version 1.2018.09(Sat Jul 28 01:58:18 JST 2018)
(GPL source distribution)
Java Runtime: Java(TM) SE Runtime Environment
JVM: Java HotSpot(TM) 64-Bit Server VM
Java Version: 9.0.1+11
Operating System: Mac OS X
OS Version: 10.13.6
Default Encoding: UTF-8
Language: ja
Country: JP
--></g></svg>