<?xml version="1.0" encoding="UTF-8" standalone="no"?><svg xmlns="http://www.w3.org/2000/svg" xmlns:xlink="http://www.w3.org/1999/xlink" contentScriptType="application/ecmascript" contentStyleType="text/css" height="222px" preserveAspectRatio="none" style="width:649px;height:222px;" version="1.1" viewBox="0 0 649 222" width="649px" zoomAndPan="magnify"><defs><filter height="300%" id="fn4k2k0dewdrx" width="300%" x="-1" y="-1"><feGaussianBlur result="blurOut" stdDeviation="2.0"/><feColorMatrix in="blurOut" result="blurOut2" type="matrix" values="0 0 0 0 0 0 0 0 0 0 0 0 0 0 0 0 0 0 .4 0"/><feOffset dx="4.0" dy="4.0" in="blurOut2" result="blurOut3"/><feBlend in="SourceGraphic" in2="blurOut3" mode="normal"/></filter></defs><g><text fill="#000000" font-family="sans-serif" font-size="14" font-weight="bold" lengthAdjust="spacingAndGlyphs" textLength="166" x="240.5" y="23.5352">GetROMCode sequence</text><rect fill="#FFFFFF" filter="url(#fn4k2k0dewdrx)" height="86.3105" style="stroke: #A80036; stroke-width: 1.0;" width="10" x="424" y="105.7988"/><rect fill="#FFFFFF" filter="url(#fn4k2k0dewdrx)" height="28" style="stroke: #A80036; stroke-width: 1.0;" width="10" x="429" y="142.7988"/><line style="stroke: #A80036; stroke-width: 1.0; stroke-dasharray: 5.0,5.0;" x1="428.5" x2="428.5" y1="74.4883" y2="210.1094"/><a target="_top" xlink:actuate="onRequest" xlink:href="../Class/OneWireDriver.svg" xlink:show="new" xlink:title="../Class/OneWireDriver.svg" xlink:type="simple"><rect fill="#FEFECE" filter="url(#fn4k2k0dewdrx)" height="36" style="stroke: #A80036; stroke-width: 1.5;" width="141" x="356.5" y="33.4883"/><ellipse cx="374.5" cy="51.4883" fill="#008000" rx="11" ry="11" style="stroke: #A80036; stroke-width: 1.0;"/><path d="M370.2139,45.0952 L373.1357,45.0952 L374.6133,50.5322 L376.0825,45.0952 L379.021,45.0952 L379.021,57.4883 L376.9126,57.4883 L376.9126,47.5605 L375.6011,52.981 L373.6504,52.981 L372.3223,47.5605 L372.3223,57.4883 L370.2139,57.4883 Z "/><text fill="#000000" font-family="sans-serif" font-size="14" lengthAdjust="spacingAndGlyphs" textLength="99" x="391.5" y="54.4883">OneWireDriver</text></a><rect fill="#FFFFFF" filter="url(#fn4k2k0dewdrx)" height="86.3105" style="stroke: #A80036; stroke-width: 1.0;" width="10" x="424" y="105.7988"/><rect fill="#FFFFFF" filter="url(#fn4k2k0dewdrx)" height="28" style="stroke: #A80036; stroke-width: 1.0;" width="10" x="429" y="142.7988"/><polygon fill="#A80036" points="412,101.7988,422,105.7988,412,109.7988,416,105.7988" style="stroke: #A80036; stroke-width: 1.0;"/><line style="stroke: #A80036; stroke-width: 1.0;" x1="3" x2="418" y1="105.7988" y2="105.7988"/><text fill="#000000" font-family="sans-serif" font-size="13" lengthAdjust="spacingAndGlyphs" textLength="402" x="10" y="101.0566">GetROMCode(buffer : ONE_WIRE_ROM_CODE_t*, count : uint8_t)</text><line style="stroke: #A80036; stroke-width: 1.0;" x1="439" x2="481" y1="135.1094" y2="135.1094"/><line style="stroke: #A80036; stroke-width: 1.0;" x1="481" x2="481" y1="135.1094" y2="148.1094"/><line style="stroke: #A80036; stroke-width: 1.0;" x1="440" x2="481" y1="148.1094" y2="148.1094"/><polygon fill="#A80036" points="450,144.1094,440,148.1094,450,152.1094,446,148.1094" style="stroke: #A80036; stroke-width: 1.0;"/><text fill="#000000" font-family="sans-serif" font-size="13" lengthAdjust="spacingAndGlyphs" textLength="191" x="446" y="130.3672">copy foundROMCode to buffer</text><polygon fill="#A80036" points="14,188.1094,4,192.1094,14,196.1094,10,192.1094" style="stroke: #A80036; stroke-width: 1.0;"/><line style="stroke: #A80036; stroke-width: 1.0; stroke-dasharray: 2.0,2.0;" x1="8" x2="428" y1="192.1094" y2="192.1094"/><!--
@startuml

hide footbox

title GetROMCode sequence

participant "OneWireDriver" as ModuleOneWireDriver<<M,Green>>[[../Class/OneWireDriver.svg]]



-> ModuleOneWireDriver : GetROMCode(buffer : ONE_WIRE_ROM_CODE_t*, count : uint8_t)
  activate ModuleOneWireDriver

ModuleOneWireDriver -> ModuleOneWireDriver : copy foundROMCode to buffer
  activate ModuleOneWireDriver
  deactivate ModuleOneWireDriver

<- - ModuleOneWireDriver
  deactivate ModuleOneWireDriver

@enduml

PlantUML version 1.2018.09(Sat Jul 28 01:58:18 JST 2018)
(GPL source distribution)
Java Runtime: Java(TM) SE Runtime Environment
JVM: Java HotSpot(TM) 64-Bit Server VM
Java Version: 9.0.1+11
Operating System: Mac OS X
OS Version: 10.13.6
Default Encoding: UTF-8
Language: ja
Country: JP
--></g></svg>