<?xml version="1.0" encoding="UTF-8" standalone="no"?><svg xmlns="http://www.w3.org/2000/svg" xmlns:xlink="http://www.w3.org/1999/xlink" contentScriptType="application/ecmascript" contentStyleType="text/css" height="401px" preserveAspectRatio="none" style="width:424px;height:401px;" version="1.1" viewBox="0 0 424 401" width="424px" zoomAndPan="magnify"><defs><filter height="300%" id="f1wwrudmx6mmd5" width="300%" x="-1" y="-1"><feGaussianBlur result="blurOut" stdDeviation="2.0"/><feColorMatrix in="blurOut" result="blurOut2" type="matrix" values="0 0 0 0 0 0 0 0 0 0 0 0 0 0 0 0 0 0 .4 0"/><feOffset dx="4.0" dy="4.0" in="blurOut2" result="blurOut3"/><feBlend in="SourceGraphic" in2="blurOut3" mode="normal"/></filter></defs><g><text fill="#000000" font-family="sans-serif" font-size="14" font-weight="bold" lengthAdjust="spacingAndGlyphs" textLength="141" x="140.75" y="23.5352">ReadROM sequence</text><rect fill="#FFFFFF" filter="url(#f1wwrudmx6mmd5)" height="266.1738" style="stroke: #A80036; stroke-width: 1.0;" width="10" x="216.5" y="105.7988"/><rect fill="#FFFFFF" filter="url(#f1wwrudmx6mmd5)" height="28" style="stroke: #A80036; stroke-width: 1.0;" width="10" x="221.5" y="142.7988"/><rect fill="#FFFFFF" filter="url(#f1wwrudmx6mmd5)" height="28" style="stroke: #A80036; stroke-width: 1.0;" width="10" x="221.5" y="307.3516"/><rect fill="#FFFFFF" filter="url(#f1wwrudmx6mmd5)" height="78.2422" style="stroke: #000000; stroke-width: 2.0;" width="151" x="153" y="193.1094"/><line style="stroke: #A80036; stroke-width: 1.0; stroke-dasharray: 5.0,5.0;" x1="80" x2="80" y1="74.4883" y2="389.9727"/><line style="stroke: #A80036; stroke-width: 1.0; stroke-dasharray: 5.0,5.0;" x1="221" x2="221" y1="74.4883" y2="389.9727"/><a target="_top" xlink:actuate="onRequest" xlink:href="../Class/OneWireDriver.svg" xlink:show="new" xlink:title="../Class/OneWireDriver.svg" xlink:type="simple"><rect fill="#FEFECE" filter="url(#f1wwrudmx6mmd5)" height="36" style="stroke: #A80036; stroke-width: 1.5;" width="141" x="8" y="33.4883"/><ellipse cx="26" cy="51.4883" fill="#008000" rx="11" ry="11" style="stroke: #A80036; stroke-width: 1.0;"/><path d="M21.7139,45.0952 L24.6357,45.0952 L26.1133,50.5322 L27.5825,45.0952 L30.521,45.0952 L30.521,57.4883 L28.4126,57.4883 L28.4126,47.5605 L27.1011,52.981 L25.1504,52.981 L23.8223,47.5605 L23.8223,57.4883 L21.7139,57.4883 Z "/><text fill="#000000" font-family="sans-serif" font-size="14" lengthAdjust="spacingAndGlyphs" textLength="99" x="43" y="54.4883">OneWireDriver</text></a><rect fill="#FEFECE" filter="url(#f1wwrudmx6mmd5)" height="30.4883" style="stroke: #A80036; stroke-width: 1.5;" width="113" x="163" y="39"/><text fill="#000000" font-family="sans-serif" font-size="14" lengthAdjust="spacingAndGlyphs" textLength="99" x="170" y="59.5352">OneWireDriver</text><rect fill="#FFFFFF" filter="url(#f1wwrudmx6mmd5)" height="266.1738" style="stroke: #A80036; stroke-width: 1.0;" width="10" x="216.5" y="105.7988"/><rect fill="#FFFFFF" filter="url(#f1wwrudmx6mmd5)" height="28" style="stroke: #A80036; stroke-width: 1.0;" width="10" x="221.5" y="142.7988"/><rect fill="#FFFFFF" filter="url(#f1wwrudmx6mmd5)" height="28" style="stroke: #A80036; stroke-width: 1.0;" width="10" x="221.5" y="307.3516"/><polygon fill="#A80036" points="204.5,101.7988,214.5,105.7988,204.5,109.7988,208.5,105.7988" style="stroke: #A80036; stroke-width: 1.0;"/><line style="stroke: #A80036; stroke-width: 1.0;" x1="3" x2="210.5" y1="105.7988" y2="105.7988"/><text fill="#000000" font-family="sans-serif" font-size="13" lengthAdjust="spacingAndGlyphs" textLength="67" x="10" y="101.0566">ReadROM()</text><line style="stroke: #A80036; stroke-width: 1.0;" x1="231.5" x2="273.5" y1="135.1094" y2="135.1094"/><line style="stroke: #A80036; stroke-width: 1.0;" x1="273.5" x2="273.5" y1="135.1094" y2="148.1094"/><line style="stroke: #A80036; stroke-width: 1.0;" x1="232.5" x2="273.5" y1="148.1094" y2="148.1094"/><polygon fill="#A80036" points="242.5,144.1094,232.5,148.1094,242.5,152.1094,238.5,148.1094" style="stroke: #A80036; stroke-width: 1.0;"/><text fill="#000000" font-family="sans-serif" font-size="13" lengthAdjust="spacingAndGlyphs" textLength="174" x="238.5" y="130.3672">data[ROM_CODE_SIZE] = {0}</text><path d="M153,193.1094 L227,193.1094 L227,200.1094 L217,210.1094 L153,210.1094 L153,193.1094 " fill="#EEEEEE" style="stroke: #000000; stroke-width: 1.0;"/><rect fill="none" height="78.2422" style="stroke: #000000; stroke-width: 2.0;" width="151" x="153" y="193.1094"/><text fill="#000000" font-family="sans-serif" font-size="13" font-weight="bold" lengthAdjust="spacingAndGlyphs" textLength="29" x="168" y="206.6777">loop</text><text fill="#000000" font-family="sans-serif" font-size="11" font-weight="bold" lengthAdjust="spacingAndGlyphs" textLength="57" x="242" y="205.7441">[cnt[0:64)]</text><rect fill="#FFFFFF" filter="url(#f1wwrudmx6mmd5)" height="55.9316" style="stroke: #000000; stroke-width: 2.0;" width="145" x="160" y="210.4199"/><polygon fill="#EEEEEE" points="160,210.4199,224,210.4199,224,217.4199,214,227.4199,160,227.4199,160,210.4199" style="stroke: #000000; stroke-width: 2.0;"/><text fill="#000000" font-family="sans-serif" font-size="13" font-weight="bold" lengthAdjust="spacingAndGlyphs" textLength="19" x="173" y="224.9883">ref</text><text fill="#000000" font-family="sans-serif" font-size="13" lengthAdjust="spacingAndGlyphs" textLength="137" x="166" y="243.9883">data[cnt] = ReadByte()</text><a target="_top" xlink:actuate="onRequest" xlink:href="./ReadByte.svg" xlink:show="new" xlink:title="./ReadByte.svg" xlink:type="simple"><text fill="#0000FF" font-family="sans-serif" font-size="13" lengthAdjust="spacingAndGlyphs" text-decoration="underline" textLength="93" x="166" y="259.2988">./ReadByte.svg</text><line style="stroke: #0000FF; stroke-width: 1.0;" x1="166" x2="259" y1="261.2988" y2="261.2988"/></a><line style="stroke: #A80036; stroke-width: 1.0;" x1="231.5" x2="273.5" y1="299.6621" y2="299.6621"/><line style="stroke: #A80036; stroke-width: 1.0;" x1="273.5" x2="273.5" y1="299.6621" y2="312.6621"/><line style="stroke: #A80036; stroke-width: 1.0;" x1="232.5" x2="273.5" y1="312.6621" y2="312.6621"/><polygon fill="#A80036" points="242.5,308.6621,232.5,312.6621,242.5,316.6621,238.5,312.6621" style="stroke: #A80036; stroke-width: 1.0;"/><text fill="#000000" font-family="sans-serif" font-size="13" lengthAdjust="spacingAndGlyphs" textLength="172" x="238.5" y="294.9199">input data to struct "result"</text><polygon fill="#A80036" points="14,367.9727,4,371.9727,14,375.9727,10,371.9727" style="stroke: #A80036; stroke-width: 1.0;"/><line style="stroke: #A80036; stroke-width: 1.0; stroke-dasharray: 2.0,2.0;" x1="8" x2="220.5" y1="371.9727" y2="371.9727"/><text fill="#000000" font-family="sans-serif" font-size="13" lengthAdjust="spacingAndGlyphs" textLength="36" x="20" y="367.2305">result</text><!--
@startuml

hide footbox

title ReadROM sequence

participant "OneWireDriver" as ModuleOneWireDriver<<M,Green>>[[../Class/OneWireDriver.svg]]

-> OneWireDriver : ReadROM()
  activate OneWireDriver

OneWireDriver -> OneWireDriver : data[ROM_CODE_SIZE] = {0}
  activate OneWireDriver
  deactivate OneWireDriver

loop cnt[0:64)
  ref over OneWireDriver
    data[cnt] = ReadByte()
    [[./ReadByte.svg]]
  end ref
end

OneWireDriver -> OneWireDriver : input data to struct "result"
  activate OneWireDriver
  deactivate OneWireDriver

<- - OneWireDriver : result
  deactivate OneWireDriver


@enduml

PlantUML version 1.2018.09(Sat Jul 28 01:58:18 JST 2018)
(GPL source distribution)
Java Runtime: Java(TM) SE Runtime Environment
JVM: Java HotSpot(TM) 64-Bit Server VM
Java Version: 9.0.1+11
Operating System: Mac OS X
OS Version: 10.13.6
Default Encoding: UTF-8
Language: ja
Country: JP
--></g></svg>