<?xml version="1.0" encoding="UTF-8" standalone="no"?><svg xmlns="http://www.w3.org/2000/svg" xmlns:xlink="http://www.w3.org/1999/xlink" contentScriptType="application/ecmascript" contentStyleType="text/css" height="329px" preserveAspectRatio="none" style="width:197px;height:329px;" version="1.1" viewBox="0 0 197 329" width="197px" zoomAndPan="magnify"><defs><filter height="300%" id="f1qqwkfxjmrhkw" width="300%" x="-1" y="-1"><feGaussianBlur result="blurOut" stdDeviation="2.0"/><feColorMatrix in="blurOut" result="blurOut2" type="matrix" values="0 0 0 0 0 0 0 0 0 0 0 0 0 0 0 0 0 0 .4 0"/><feOffset dx="4.0" dy="4.0" in="blurOut2" result="blurOut3"/><feBlend in="SourceGraphic" in2="blurOut3" mode="normal"/></filter></defs><g><text fill="#000000" font-family="sans-serif" font-size="14" font-weight="bold" lengthAdjust="spacingAndGlyphs" textLength="137" x="29" y="23.5352">ReadByte sequence</text><rect fill="#FFFFFF" filter="url(#f1qqwkfxjmrhkw)" height="193.8633" style="stroke: #A80036; stroke-width: 1.0;" width="10" x="90.5" y="105.7988"/><rect fill="#FFFFFF" filter="url(#f1qqwkfxjmrhkw)" height="28" style="stroke: #A80036; stroke-width: 1.0;" width="10" x="95.5" y="142.7988"/><rect fill="#FFFFFF" filter="url(#f1qqwkfxjmrhkw)" height="78.2422" style="stroke: #000000; stroke-width: 2.0;" width="165" x="13" y="193.1094"/><line style="stroke: #A80036; stroke-width: 1.0; stroke-dasharray: 5.0,5.0;" x1="95" x2="95" y1="74.4883" y2="317.6621"/><a target="_top" xlink:actuate="onRequest" xlink:href="../Class/OneWireDriver.svg" xlink:show="new" xlink:title="../Class/OneWireDriver.svg" xlink:type="simple"><rect fill="#FEFECE" filter="url(#f1qqwkfxjmrhkw)" height="36" style="stroke: #A80036; stroke-width: 1.5;" width="141" x="23" y="33.4883"/><ellipse cx="41" cy="51.4883" fill="#008000" rx="11" ry="11" style="stroke: #A80036; stroke-width: 1.0;"/><path d="M36.7139,45.0952 L39.6357,45.0952 L41.1133,50.5322 L42.5825,45.0952 L45.521,45.0952 L45.521,57.4883 L43.4126,57.4883 L43.4126,47.5605 L42.1011,52.981 L40.1504,52.981 L38.8223,47.5605 L38.8223,57.4883 L36.7139,57.4883 Z "/><text fill="#000000" font-family="sans-serif" font-size="14" lengthAdjust="spacingAndGlyphs" textLength="99" x="58" y="54.4883">OneWireDriver</text></a><rect fill="#FFFFFF" filter="url(#f1qqwkfxjmrhkw)" height="193.8633" style="stroke: #A80036; stroke-width: 1.0;" width="10" x="90.5" y="105.7988"/><rect fill="#FFFFFF" filter="url(#f1qqwkfxjmrhkw)" height="28" style="stroke: #A80036; stroke-width: 1.0;" width="10" x="95.5" y="142.7988"/><polygon fill="#A80036" points="78.5,101.7988,88.5,105.7988,78.5,109.7988,82.5,105.7988" style="stroke: #A80036; stroke-width: 1.0;"/><line style="stroke: #A80036; stroke-width: 1.0;" x1="3" x2="84.5" y1="105.7988" y2="105.7988"/><text fill="#000000" font-family="sans-serif" font-size="13" lengthAdjust="spacingAndGlyphs" textLength="64" x="10" y="101.0566">ReadByte()</text><line style="stroke: #A80036; stroke-width: 1.0;" x1="105.5" x2="147.5" y1="135.1094" y2="135.1094"/><line style="stroke: #A80036; stroke-width: 1.0;" x1="147.5" x2="147.5" y1="135.1094" y2="148.1094"/><line style="stroke: #A80036; stroke-width: 1.0;" x1="106.5" x2="147.5" y1="148.1094" y2="148.1094"/><polygon fill="#A80036" points="116.5,144.1094,106.5,148.1094,116.5,152.1094,112.5,148.1094" style="stroke: #A80036; stroke-width: 1.0;"/><text fill="#000000" font-family="sans-serif" font-size="13" lengthAdjust="spacingAndGlyphs" textLength="62" x="112.5" y="130.3672">result = 0</text><path d="M13,193.1094 L87,193.1094 L87,200.1094 L77,210.1094 L13,210.1094 L13,193.1094 " fill="#EEEEEE" style="stroke: #000000; stroke-width: 1.0;"/><rect fill="none" height="78.2422" style="stroke: #000000; stroke-width: 2.0;" width="165" x="13" y="193.1094"/><text fill="#000000" font-family="sans-serif" font-size="13" font-weight="bold" lengthAdjust="spacingAndGlyphs" textLength="29" x="28" y="206.6777">loop</text><text fill="#000000" font-family="sans-serif" font-size="11" font-weight="bold" lengthAdjust="spacingAndGlyphs" textLength="50" x="102" y="205.7441">[cnt[0:7]]</text><rect fill="#FFFFFF" filter="url(#f1qqwkfxjmrhkw)" height="55.9316" style="stroke: #000000; stroke-width: 2.0;" width="166" x="20" y="210.4199"/><polygon fill="#EEEEEE" points="20,210.4199,84,210.4199,84,217.4199,74,227.4199,20,227.4199,20,210.4199" style="stroke: #000000; stroke-width: 2.0;"/><text fill="#000000" font-family="sans-serif" font-size="13" font-weight="bold" lengthAdjust="spacingAndGlyphs" textLength="19" x="33" y="224.9883">ref</text><text fill="#000000" font-family="sans-serif" font-size="13" lengthAdjust="spacingAndGlyphs" textLength="158" x="26" y="243.9883">result |= readBit() &lt;&lt; cnt</text><a target="_top" xlink:actuate="onRequest" xlink:href="./readBit.svg" xlink:show="new" xlink:title="./readBit.svg" xlink:type="simple"><text fill="#0000FF" font-family="sans-serif" font-size="13" lengthAdjust="spacingAndGlyphs" text-decoration="underline" textLength="80" x="26" y="259.2988">./readBit.svg</text><line style="stroke: #0000FF; stroke-width: 1.0;" x1="26" x2="106" y1="261.2988" y2="261.2988"/></a><polygon fill="#A80036" points="14,295.6621,4,299.6621,14,303.6621,10,299.6621" style="stroke: #A80036; stroke-width: 1.0;"/><line style="stroke: #A80036; stroke-width: 1.0; stroke-dasharray: 2.0,2.0;" x1="8" x2="94.5" y1="299.6621" y2="299.6621"/><text fill="#000000" font-family="sans-serif" font-size="13" lengthAdjust="spacingAndGlyphs" textLength="36" x="20" y="294.9199">result</text><!--
@startuml

hide footbox

title ReadByte sequence

participant "OneWireDriver" as ModuleOneWireDriver<<M,Green>>[[../Class/OneWireDriver.svg]]



-> ModuleOneWireDriver : ReadByte()
  activate ModuleOneWireDriver

ModuleOneWireDriver -> ModuleOneWireDriver : result = 0
  activate ModuleOneWireDriver
  deactivate ModuleOneWireDriver

loop cnt[0:7]
  ref over ModuleOneWireDriver
    result |= readBit() << cnt
    [[./readBit.svg]]
  end ref
end

<- - ModuleOneWireDriver : result
  deactivate ModuleOneWireDriver

@enduml

PlantUML version 1.2018.09(Sat Jul 28 01:58:18 JST 2018)
(GPL source distribution)
Java Runtime: Java(TM) SE Runtime Environment
JVM: Java HotSpot(TM) 64-Bit Server VM
Java Version: 9.0.1+11
Operating System: Mac OS X
OS Version: 10.13.6
Default Encoding: UTF-8
Language: ja
Country: JP
--></g></svg>