<?xml version="1.0" encoding="UTF-8" standalone="no"?><svg xmlns="http://www.w3.org/2000/svg" xmlns:xlink="http://www.w3.org/1999/xlink" contentScriptType="application/ecmascript" contentStyleType="text/css" height="485px" preserveAspectRatio="none" style="width:592px;height:485px;" version="1.1" viewBox="0 0 592 485" width="592px" zoomAndPan="magnify"><defs><filter height="300%" id="f1bxtebrb7pe90" width="300%" x="-1" y="-1"><feGaussianBlur result="blurOut" stdDeviation="2.0"/><feColorMatrix in="blurOut" result="blurOut2" type="matrix" values="0 0 0 0 0 0 0 0 0 0 0 0 0 0 0 0 0 0 .4 0"/><feOffset dx="4.0" dy="4.0" in="blurOut2" result="blurOut3"/><feBlend in="SourceGraphic" in2="blurOut3" mode="normal"/></filter></defs><g><text fill="#000000" font-family="sans-serif" font-size="14" font-weight="bold" lengthAdjust="spacingAndGlyphs" textLength="155" x="214.25" y="23.5352">Reset pulse sequence</text><rect fill="#FFFFFF" filter="url(#f1bxtebrb7pe90)" height="350.1055" style="stroke: #A80036; stroke-width: 1.0;" width="10" x="194" y="105.7988"/><rect fill="#FFFFFF" filter="url(#f1bxtebrb7pe90)" height="14" style="stroke: #A80036; stroke-width: 1.0;" width="10" x="348.5" y="178.4199"/><rect fill="#FFFFFF" filter="url(#f1bxtebrb7pe90)" height="14" style="stroke: #A80036; stroke-width: 1.0;" width="10" x="348.5" y="221.7305"/><rect fill="#FFFFFF" filter="url(#f1bxtebrb7pe90)" height="14" style="stroke: #A80036; stroke-width: 1.0;" width="10" x="348.5" y="308.3516"/><rect fill="#FFFFFF" filter="url(#f1bxtebrb7pe90)" height="14" style="stroke: #A80036; stroke-width: 1.0;" width="10" x="500.5" y="265.041"/><line style="stroke: #A80036; stroke-width: 1.0; stroke-dasharray: 5.0,5.0;" x1="198.5" x2="198.5" y1="74.4883" y2="473.9043"/><line style="stroke: #A80036; stroke-width: 1.0; stroke-dasharray: 5.0,5.0;" x1="353.5" x2="353.5" y1="74.4883" y2="473.9043"/><line style="stroke: #A80036; stroke-width: 1.0; stroke-dasharray: 5.0,5.0;" x1="505.5" x2="505.5" y1="74.4883" y2="473.9043"/><a target="_top" xlink:actuate="onRequest" xlink:href="../Class/OneWireDriver.svg" xlink:show="new" xlink:title="../Class/OneWireDriver.svg" xlink:type="simple"><rect fill="#FEFECE" filter="url(#f1bxtebrb7pe90)" height="36" style="stroke: #A80036; stroke-width: 1.5;" width="141" x="126.5" y="33.4883"/><ellipse cx="144.5" cy="51.4883" fill="#008000" rx="11" ry="11" style="stroke: #A80036; stroke-width: 1.0;"/><path d="M140.2139,45.0952 L143.1357,45.0952 L144.6133,50.5322 L146.0825,45.0952 L149.021,45.0952 L149.021,57.4883 L146.9126,57.4883 L146.9126,47.5605 L145.6011,52.981 L143.6504,52.981 L142.3223,47.5605 L142.3223,57.4883 L140.2139,57.4883 Z "/><text fill="#000000" font-family="sans-serif" font-size="14" lengthAdjust="spacingAndGlyphs" textLength="99" x="161.5" y="54.4883">OneWireDriver</text></a><a target="_top" xlink:actuate="onRequest" xlink:href="../Class/OneWireDriver.svg" xlink:show="new" xlink:title="../Class/OneWireDriver.svg" xlink:type="simple"><rect fill="#FEFECE" filter="url(#f1bxtebrb7pe90)" height="36" style="stroke: #A80036; stroke-width: 1.5;" width="140" x="281.5" y="33.4883"/><ellipse cx="299.5" cy="51.4883" fill="#008000" rx="11" ry="11" style="stroke: #A80036; stroke-width: 1.0;"/><path d="M295.2139,45.0952 L298.1357,45.0952 L299.6133,50.5322 L301.0825,45.0952 L304.021,45.0952 L304.021,57.4883 L301.9126,57.4883 L301.9126,47.5605 L300.6011,52.981 L298.6504,52.981 L297.3223,47.5605 L297.3223,57.4883 L295.2139,57.4883 Z "/><text fill="#000000" font-family="sans-serif" font-size="14" lengthAdjust="spacingAndGlyphs" textLength="98" x="316.5" y="54.4883">GPIO_Wrapper</text></a><a target="_top" xlink:actuate="onRequest" xlink:href="../Class/OneWireDriver.svg" xlink:show="new" xlink:title="../Class/OneWireDriver.svg" xlink:type="simple"><rect fill="#FEFECE" filter="url(#f1bxtebrb7pe90)" height="36" style="stroke: #A80036; stroke-width: 1.5;" width="136" x="435.5" y="33.4883"/><ellipse cx="453.5" cy="51.4883" fill="#008000" rx="11" ry="11" style="stroke: #A80036; stroke-width: 1.0;"/><path d="M449.2139,45.0952 L452.1357,45.0952 L453.6133,50.5322 L455.0825,45.0952 L458.021,45.0952 L458.021,57.4883 L455.9126,57.4883 L455.9126,47.5605 L454.6011,52.981 L452.6504,52.981 L451.3223,47.5605 L451.3223,57.4883 L449.2139,57.4883 Z "/><text fill="#000000" font-family="sans-serif" font-size="14" lengthAdjust="spacingAndGlyphs" textLength="94" x="470.5" y="54.4883">Wait_Wrapper</text></a><rect fill="#FFFFFF" filter="url(#f1bxtebrb7pe90)" height="350.1055" style="stroke: #A80036; stroke-width: 1.0;" width="10" x="194" y="105.7988"/><rect fill="#FFFFFF" filter="url(#f1bxtebrb7pe90)" height="14" style="stroke: #A80036; stroke-width: 1.0;" width="10" x="348.5" y="178.4199"/><rect fill="#FFFFFF" filter="url(#f1bxtebrb7pe90)" height="14" style="stroke: #A80036; stroke-width: 1.0;" width="10" x="348.5" y="221.7305"/><rect fill="#FFFFFF" filter="url(#f1bxtebrb7pe90)" height="14" style="stroke: #A80036; stroke-width: 1.0;" width="10" x="348.5" y="308.3516"/><rect fill="#FFFFFF" filter="url(#f1bxtebrb7pe90)" height="14" style="stroke: #A80036; stroke-width: 1.0;" width="10" x="500.5" y="265.041"/><polygon fill="#A80036" points="182,101.7988,192,105.7988,182,109.7988,186,105.7988" style="stroke: #A80036; stroke-width: 1.0;"/><line style="stroke: #A80036; stroke-width: 1.0;" x1="3" x2="188" y1="105.7988" y2="105.7988"/><text fill="#000000" font-family="sans-serif" font-size="13" lengthAdjust="spacingAndGlyphs" textLength="75" x="10" y="101.0566">ResetPulse()</text><rect fill="#EEEEEE" filter="url(#f1bxtebrb7pe90)" height="3" style="stroke: #EEEEEE; stroke-width: 1.0;" width="577.5" x="3" y="134.4541"/><line style="stroke: #000000; stroke-width: 1.0;" x1="3" x2="580.5" y1="134.4541" y2="134.4541"/><line style="stroke: #000000; stroke-width: 1.0;" x1="3" x2="580.5" y1="137.4541" y2="137.4541"/><rect fill="#EEEEEE" filter="url(#f1bxtebrb7pe90)" height="23.3105" style="stroke: #000000; stroke-width: 2.0;" width="102" x="240.75" y="123.7988"/><text fill="#000000" font-family="sans-serif" font-size="13" font-weight="bold" lengthAdjust="spacingAndGlyphs" textLength="84" x="246.75" y="140.3672">PulseOutput</text><polygon fill="#A80036" points="336.5,174.4199,346.5,178.4199,336.5,182.4199,340.5,178.4199" style="stroke: #A80036; stroke-width: 1.0;"/><line style="stroke: #A80036; stroke-width: 1.0;" x1="204" x2="342.5" y1="178.4199" y2="178.4199"/><text fill="#000000" font-family="sans-serif" font-size="13" lengthAdjust="spacingAndGlyphs" textLength="104" x="211" y="173.6777">SetPin2TxMode()</text><polygon fill="#A80036" points="215,188.4199,205,192.4199,215,196.4199,211,192.4199" style="stroke: #A80036; stroke-width: 1.0;"/><line style="stroke: #A80036; stroke-width: 1.0; stroke-dasharray: 2.0,2.0;" x1="209" x2="352.5" y1="192.4199" y2="192.4199"/><polygon fill="#A80036" points="336.5,217.7305,346.5,221.7305,336.5,225.7305,340.5,221.7305" style="stroke: #A80036; stroke-width: 1.0;"/><line style="stroke: #A80036; stroke-width: 1.0;" x1="204" x2="342.5" y1="221.7305" y2="221.7305"/><text fill="#000000" font-family="sans-serif" font-size="13" lengthAdjust="spacingAndGlyphs" textLength="67" x="211" y="216.9883">AssertPin()</text><polygon fill="#A80036" points="215,231.7305,205,235.7305,215,239.7305,211,235.7305" style="stroke: #A80036; stroke-width: 1.0;"/><line style="stroke: #A80036; stroke-width: 1.0; stroke-dasharray: 2.0,2.0;" x1="209" x2="352.5" y1="235.7305" y2="235.7305"/><polygon fill="#A80036" points="488.5,261.041,498.5,265.041,488.5,269.041,492.5,265.041" style="stroke: #A80036; stroke-width: 1.0;"/><line style="stroke: #A80036; stroke-width: 1.0;" x1="204" x2="494.5" y1="265.041" y2="265.041"/><text fill="#000000" font-family="sans-serif" font-size="13" lengthAdjust="spacingAndGlyphs" textLength="102" x="211" y="260.2988">Wait_us(T_RSTL)</text><polygon fill="#A80036" points="215,275.041,205,279.041,215,283.041,211,279.041" style="stroke: #A80036; stroke-width: 1.0;"/><line style="stroke: #A80036; stroke-width: 1.0; stroke-dasharray: 2.0,2.0;" x1="209" x2="504.5" y1="279.041" y2="279.041"/><polygon fill="#A80036" points="336.5,304.3516,346.5,308.3516,336.5,312.3516,340.5,308.3516" style="stroke: #A80036; stroke-width: 1.0;"/><line style="stroke: #A80036; stroke-width: 1.0;" x1="204" x2="342.5" y1="308.3516" y2="308.3516"/><text fill="#000000" font-family="sans-serif" font-size="13" lengthAdjust="spacingAndGlyphs" textLength="71" x="211" y="303.6094">NegatePin()</text><polygon fill="#A80036" points="215,318.3516,205,322.3516,215,326.3516,211,322.3516" style="stroke: #A80036; stroke-width: 1.0;"/><line style="stroke: #A80036; stroke-width: 1.0; stroke-dasharray: 2.0,2.0;" x1="209" x2="352.5" y1="322.3516" y2="322.3516"/><rect fill="#EEEEEE" filter="url(#f1bxtebrb7pe90)" height="3" style="stroke: #EEEEEE; stroke-width: 1.0;" width="577.5" x="3" y="351.0068"/><line style="stroke: #000000; stroke-width: 1.0;" x1="3" x2="580.5" y1="351.0068" y2="351.0068"/><line style="stroke: #000000; stroke-width: 1.0;" x1="3" x2="580.5" y1="354.0068" y2="354.0068"/><rect fill="#EEEEEE" filter="url(#f1bxtebrb7pe90)" height="23.3105" style="stroke: #000000; stroke-width: 2.0;" width="110" x="236.75" y="340.3516"/><text fill="#000000" font-family="sans-serif" font-size="13" font-weight="bold" lengthAdjust="spacingAndGlyphs" textLength="92" x="242.75" y="356.9199">ReadReaction</text><rect fill="#FFFFFF" filter="url(#f1bxtebrb7pe90)" height="55.9316" style="stroke: #000000; stroke-width: 2.0;" width="160" x="123.5" y="373.6621"/><polygon fill="#EEEEEE" points="123.5,373.6621,187.5,373.6621,187.5,380.6621,177.5,390.6621,123.5,390.6621,123.5,373.6621" style="stroke: #000000; stroke-width: 2.0;"/><text fill="#000000" font-family="sans-serif" font-size="13" font-weight="bold" lengthAdjust="spacingAndGlyphs" textLength="19" x="136.5" y="388.2305">ref</text><text fill="#000000" font-family="sans-serif" font-size="13" lengthAdjust="spacingAndGlyphs" textLength="123" x="129.5" y="407.2305">readPresensePulse()</text><a target="_top" xlink:actuate="onRequest" xlink:href="./readPresensePulse.svg" xlink:show="new" xlink:title="./readPresensePulse.svg" xlink:type="simple"><text fill="#0000FF" font-family="sans-serif" font-size="13" lengthAdjust="spacingAndGlyphs" text-decoration="underline" textLength="152" x="129.5" y="422.541">./readPresensePulse.svg</text><line style="stroke: #0000FF; stroke-width: 1.0;" x1="129.5" x2="281.5" y1="424.541" y2="424.541"/></a><polygon fill="#A80036" points="14,451.9043,4,455.9043,14,459.9043,10,455.9043" style="stroke: #A80036; stroke-width: 1.0;"/><line style="stroke: #A80036; stroke-width: 1.0; stroke-dasharray: 2.0,2.0;" x1="8" x2="198" y1="455.9043" y2="455.9043"/><text fill="#000000" font-family="sans-serif" font-size="13" lengthAdjust="spacingAndGlyphs" textLength="172" x="20" y="451.1621">result of readPresensePulse</text><!--
@startuml

hide footbox

title Reset pulse sequence

participant "OneWireDriver" as ModuleOneWireDriver<<M,Green>>[[../Class/OneWireDriver.svg]]
participant "GPIO_Wrapper" as ModuleGPIO_Wrapper<<M,Green>>[[../Class/OneWireDriver.svg]]
participant "Wait_Wrapper" as ModuleWait_Wrapper<<M,Green>>[[../Class/OneWireDriver.svg]]

-> ModuleOneWireDriver : ResetPulse()
  activate ModuleOneWireDriver

== PulseOutput ==
ModuleOneWireDriver -> ModuleGPIO_Wrapper : SetPin2TxMode()
  activate ModuleGPIO_Wrapper
ModuleOneWireDriver <- - ModuleGPIO_Wrapper
  deactivate ModuleGPIO_Wrapper

ModuleOneWireDriver -> ModuleGPIO_Wrapper : AssertPin()
  activate ModuleGPIO_Wrapper
ModuleOneWireDriver <- - ModuleGPIO_Wrapper
  deactivate ModuleGPIO_Wrapper

ModuleOneWireDriver -> ModuleWait_Wrapper : Wait_us(T_RSTL)
  activate ModuleWait_Wrapper
ModuleOneWireDriver <- - ModuleWait_Wrapper
  deactivate ModuleWait_Wrapper

ModuleOneWireDriver -> ModuleGPIO_Wrapper : NegatePin()
  activate ModuleGPIO_Wrapper
ModuleOneWireDriver <- - ModuleGPIO_Wrapper
  deactivate ModuleGPIO_Wrapper

== ReadReaction ==
ref over ModuleOneWireDriver
  readPresensePulse()
  [[./readPresensePulse.svg]]
end ref

<- - ModuleOneWireDriver : result of readPresensePulse
  deactivate ModuleOneWireDriver

@enduml

PlantUML version 1.2018.09(Sat Jul 28 01:58:18 JST 2018)
(GPL source distribution)
Java Runtime: Java(TM) SE Runtime Environment
JVM: Java HotSpot(TM) 64-Bit Server VM
Java Version: 9.0.1+11
Operating System: Mac OS X
OS Version: 10.13.6
Default Encoding: UTF-8
Language: ja
Country: JP
--></g></svg>