<?xml version="1.0" encoding="UTF-8" standalone="no"?><svg xmlns="http://www.w3.org/2000/svg" xmlns:xlink="http://www.w3.org/1999/xlink" contentScriptType="application/ecmascript" contentStyleType="text/css" height="739px" preserveAspectRatio="none" style="width:375px;height:739px;" version="1.1" viewBox="0 0 375 739" width="375px" zoomAndPan="magnify"><defs><filter height="300%" id="fslaxu5ivj31q" width="300%" x="-1" y="-1"><feGaussianBlur result="blurOut" stdDeviation="2.0"/><feColorMatrix in="blurOut" result="blurOut2" type="matrix" values="0 0 0 0 0 0 0 0 0 0 0 0 0 0 0 0 0 0 .4 0"/><feOffset dx="4.0" dy="4.0" in="blurOut2" result="blurOut3"/><feBlend in="SourceGraphic" in2="blurOut3" mode="normal"/></filter></defs><g><text fill="#000000" font-family="sans-serif" font-size="14" font-weight="bold" lengthAdjust="spacingAndGlyphs" textLength="215" x="75.75" y="23.5352">searchROMBitCheck sequence</text><rect fill="#FFFFFF" filter="url(#fslaxu5ivj31q)" height="603.2129" style="stroke: #A80036; stroke-width: 1.0;" width="10" x="155" y="105.7988"/><rect fill="#FFFFFF" filter="url(#fslaxu5ivj31q)" height="28" style="stroke: #A80036; stroke-width: 1.0;" width="10" x="160" y="375.5938"/><rect fill="#FFFFFF" filter="url(#fslaxu5ivj31q)" height="28" style="stroke: #A80036; stroke-width: 1.0;" width="10" x="160" y="462.8594"/><rect fill="#FFFFFF" filter="url(#fslaxu5ivj31q)" height="28" style="stroke: #A80036; stroke-width: 1.0;" width="10" x="160" y="550.125"/><rect fill="#FFFFFF" filter="url(#fslaxu5ivj31q)" height="28" style="stroke: #A80036; stroke-width: 1.0;" width="10" x="160" y="637.3906"/><rect fill="#FFFFFF" filter="url(#fslaxu5ivj31q)" height="351.418" style="stroke: #000000; stroke-width: 2.0;" width="276" x="77.5" y="329.2832"/><rect fill="#FFFFFF" height="87.2656" style="stroke: none; stroke-width: 1.0;" width="276" x="77.5" y="418.9043"/><rect fill="#FFFFFF" height="87.2656" style="stroke: none; stroke-width: 1.0;" width="276" x="77.5" y="506.1699"/><rect fill="#FFFFFF" height="87.2656" style="stroke: none; stroke-width: 1.0;" width="276" x="77.5" y="593.4355"/><line style="stroke: #A80036; stroke-width: 1.0; stroke-dasharray: 5.0,5.0;" x1="159.5" x2="159.5" y1="74.4883" y2="727.0117"/><a target="_top" xlink:actuate="onRequest" xlink:href="../Class/OneWireDriver.svg" xlink:show="new" xlink:title="../Class/OneWireDriver.svg" xlink:type="simple"><rect fill="#FEFECE" filter="url(#fslaxu5ivj31q)" height="36" style="stroke: #A80036; stroke-width: 1.5;" width="141" x="87.5" y="33.4883"/><ellipse cx="105.5" cy="51.4883" fill="#008000" rx="11" ry="11" style="stroke: #A80036; stroke-width: 1.0;"/><path d="M101.2139,45.0952 L104.1357,45.0952 L105.6133,50.5322 L107.0825,45.0952 L110.021,45.0952 L110.021,57.4883 L107.9126,57.4883 L107.9126,47.5605 L106.6011,52.981 L104.6504,52.981 L103.3223,47.5605 L103.3223,57.4883 L101.2139,57.4883 Z "/><text fill="#000000" font-family="sans-serif" font-size="14" lengthAdjust="spacingAndGlyphs" textLength="99" x="122.5" y="54.4883">OneWireDriver</text></a><rect fill="#FFFFFF" filter="url(#fslaxu5ivj31q)" height="603.2129" style="stroke: #A80036; stroke-width: 1.0;" width="10" x="155" y="105.7988"/><rect fill="#FFFFFF" filter="url(#fslaxu5ivj31q)" height="28" style="stroke: #A80036; stroke-width: 1.0;" width="10" x="160" y="375.5938"/><rect fill="#FFFFFF" filter="url(#fslaxu5ivj31q)" height="28" style="stroke: #A80036; stroke-width: 1.0;" width="10" x="160" y="462.8594"/><rect fill="#FFFFFF" filter="url(#fslaxu5ivj31q)" height="28" style="stroke: #A80036; stroke-width: 1.0;" width="10" x="160" y="550.125"/><rect fill="#FFFFFF" filter="url(#fslaxu5ivj31q)" height="28" style="stroke: #A80036; stroke-width: 1.0;" width="10" x="160" y="637.3906"/><polygon fill="#A80036" points="143,101.7988,153,105.7988,143,109.7988,147,105.7988" style="stroke: #A80036; stroke-width: 1.0;"/><line style="stroke: #A80036; stroke-width: 1.0;" x1="3" x2="149" y1="105.7988" y2="105.7988"/><text fill="#000000" font-family="sans-serif" font-size="13" lengthAdjust="spacingAndGlyphs" textLength="133" x="10" y="101.0566">searchROMBitCheck()</text><rect fill="#EEEEEE" filter="url(#fslaxu5ivj31q)" height="3" style="stroke: #EEEEEE; stroke-width: 1.0;" width="360.5" x="3" y="134.4541"/><line style="stroke: #000000; stroke-width: 1.0;" x1="3" x2="363.5" y1="134.4541" y2="134.4541"/><line style="stroke: #000000; stroke-width: 1.0;" x1="3" x2="363.5" y1="137.4541" y2="137.4541"/><rect fill="#EEEEEE" filter="url(#fslaxu5ivj31q)" height="23.3105" style="stroke: #000000; stroke-width: 2.0;" width="184" x="91.25" y="123.7988"/><text fill="#000000" font-family="sans-serif" font-size="13" font-weight="bold" lengthAdjust="spacingAndGlyphs" textLength="170" x="97.25" y="140.3672">Read AND and NOT-AND</text><rect fill="#FFFFFF" filter="url(#fslaxu5ivj31q)" height="55.9316" style="stroke: #000000; stroke-width: 2.0;" width="147" x="84.5" y="157.1094"/><polygon fill="#EEEEEE" points="84.5,157.1094,148.5,157.1094,148.5,164.1094,138.5,174.1094,84.5,174.1094,84.5,157.1094" style="stroke: #000000; stroke-width: 2.0;"/><text fill="#000000" font-family="sans-serif" font-size="13" font-weight="bold" lengthAdjust="spacingAndGlyphs" textLength="19" x="97.5" y="171.6777">ref</text><text fill="#000000" font-family="sans-serif" font-size="13" lengthAdjust="spacingAndGlyphs" textLength="129" x="95.5" y="190.6777">andOfLsb = readBit()</text><a target="_top" xlink:actuate="onRequest" xlink:href="./readBit.svg" xlink:show="new" xlink:title="./readBit.svg" xlink:type="simple"><text fill="#0000FF" font-family="sans-serif" font-size="13" lengthAdjust="spacingAndGlyphs" text-decoration="underline" textLength="80" x="95.5" y="205.9883">./readBit.svg</text><line style="stroke: #0000FF; stroke-width: 1.0;" x1="95.5" x2="175.5" y1="207.9883" y2="207.9883"/></a><rect fill="#FFFFFF" filter="url(#fslaxu5ivj31q)" height="55.9316" style="stroke: #000000; stroke-width: 2.0;" width="165" x="84.5" y="218.041"/><polygon fill="#EEEEEE" points="84.5,218.041,148.5,218.041,148.5,225.041,138.5,235.041,84.5,235.041,84.5,218.041" style="stroke: #000000; stroke-width: 2.0;"/><text fill="#000000" font-family="sans-serif" font-size="13" font-weight="bold" lengthAdjust="spacingAndGlyphs" textLength="19" x="97.5" y="232.6094">ref</text><text fill="#000000" font-family="sans-serif" font-size="13" lengthAdjust="spacingAndGlyphs" textLength="157" x="90.5" y="251.6094">andOfNOTLsb = readBit()</text><a target="_top" xlink:actuate="onRequest" xlink:href="./readBit.svg" xlink:show="new" xlink:title="./readBit.svg" xlink:type="simple"><text fill="#0000FF" font-family="sans-serif" font-size="13" lengthAdjust="spacingAndGlyphs" text-decoration="underline" textLength="80" x="90.5" y="266.9199">./readBit.svg</text><line style="stroke: #0000FF; stroke-width: 1.0;" x1="90.5" x2="170.5" y1="268.9199" y2="268.9199"/></a><rect fill="#EEEEEE" filter="url(#fslaxu5ivj31q)" height="3" style="stroke: #EEEEEE; stroke-width: 1.0;" width="360.5" x="3" y="299.6279"/><line style="stroke: #000000; stroke-width: 1.0;" x1="3" x2="363.5" y1="299.6279" y2="299.6279"/><line style="stroke: #000000; stroke-width: 1.0;" x1="3" x2="363.5" y1="302.6279" y2="302.6279"/><rect fill="#EEEEEE" filter="url(#fslaxu5ivj31q)" height="23.3105" style="stroke: #000000; stroke-width: 2.0;" width="161" x="102.75" y="288.9727"/><text fill="#000000" font-family="sans-serif" font-size="13" font-weight="bold" lengthAdjust="spacingAndGlyphs" textLength="147" x="108.75" y="305.541">Evaluate the Situation</text><path d="M77.5,329.2832 L144.5,329.2832 L144.5,336.2832 L134.5,346.2832 L77.5,346.2832 L77.5,329.2832 " fill="#EEEEEE" style="stroke: #000000; stroke-width: 1.0;"/><rect fill="none" height="351.418" style="stroke: #000000; stroke-width: 2.0;" width="276" x="77.5" y="329.2832"/><text fill="#000000" font-family="sans-serif" font-size="13" font-weight="bold" lengthAdjust="spacingAndGlyphs" textLength="22" x="92.5" y="342.8516">opt</text><text fill="#000000" font-family="sans-serif" font-size="11" font-weight="bold" lengthAdjust="spacingAndGlyphs" textLength="189" x="159.5" y="341.918">[andOfLSB | andOfNOTLsb = 00b]</text><line style="stroke: #A80036; stroke-width: 1.0;" x1="170" x2="212" y1="367.9043" y2="367.9043"/><line style="stroke: #A80036; stroke-width: 1.0;" x1="212" x2="212" y1="367.9043" y2="380.9043"/><line style="stroke: #A80036; stroke-width: 1.0;" x1="171" x2="212" y1="380.9043" y2="380.9043"/><polygon fill="#A80036" points="181,376.9043,171,380.9043,181,384.9043,177,380.9043" style="stroke: #A80036; stroke-width: 1.0;"/><text fill="#000000" font-family="sans-serif" font-size="13" lengthAdjust="spacingAndGlyphs" textLength="137" x="177" y="363.1621">result = BOTH_EXISTS</text><line style="stroke: #000000; stroke-width: 1.0; stroke-dasharray: 2.0,2.0;" x1="77.5" x2="353.5" y1="419.9043" y2="419.9043"/><text fill="#000000" font-family="sans-serif" font-size="11" font-weight="bold" lengthAdjust="spacingAndGlyphs" textLength="29" x="82.5" y="430.5391">[01b]</text><line style="stroke: #A80036; stroke-width: 1.0;" x1="170" x2="212" y1="455.1699" y2="455.1699"/><line style="stroke: #A80036; stroke-width: 1.0;" x1="212" x2="212" y1="455.1699" y2="468.1699"/><line style="stroke: #A80036; stroke-width: 1.0;" x1="171" x2="212" y1="468.1699" y2="468.1699"/><polygon fill="#A80036" points="181,464.1699,171,468.1699,181,472.1699,177,468.1699" style="stroke: #A80036; stroke-width: 1.0;"/><text fill="#000000" font-family="sans-serif" font-size="13" lengthAdjust="spacingAndGlyphs" textLength="152" x="177" y="450.4277">result = ONLY_0_EXISTS</text><line style="stroke: #000000; stroke-width: 1.0; stroke-dasharray: 2.0,2.0;" x1="77.5" x2="353.5" y1="507.1699" y2="507.1699"/><text fill="#000000" font-family="sans-serif" font-size="11" font-weight="bold" lengthAdjust="spacingAndGlyphs" textLength="29" x="82.5" y="517.8047">[10b]</text><line style="stroke: #A80036; stroke-width: 1.0;" x1="170" x2="212" y1="542.4355" y2="542.4355"/><line style="stroke: #A80036; stroke-width: 1.0;" x1="212" x2="212" y1="542.4355" y2="555.4355"/><line style="stroke: #A80036; stroke-width: 1.0;" x1="171" x2="212" y1="555.4355" y2="555.4355"/><polygon fill="#A80036" points="181,551.4355,171,555.4355,181,559.4355,177,555.4355" style="stroke: #A80036; stroke-width: 1.0;"/><text fill="#000000" font-family="sans-serif" font-size="13" lengthAdjust="spacingAndGlyphs" textLength="152" x="177" y="537.6934">result = ONLY_1_EXISTS</text><line style="stroke: #000000; stroke-width: 1.0; stroke-dasharray: 2.0,2.0;" x1="77.5" x2="353.5" y1="594.4355" y2="594.4355"/><text fill="#000000" font-family="sans-serif" font-size="11" font-weight="bold" lengthAdjust="spacingAndGlyphs" textLength="29" x="82.5" y="605.0703">[11b]</text><line style="stroke: #A80036; stroke-width: 1.0;" x1="170" x2="212" y1="629.7012" y2="629.7012"/><line style="stroke: #A80036; stroke-width: 1.0;" x1="212" x2="212" y1="629.7012" y2="642.7012"/><line style="stroke: #A80036; stroke-width: 1.0;" x1="171" x2="212" y1="642.7012" y2="642.7012"/><polygon fill="#A80036" points="181,638.7012,171,642.7012,181,646.7012,177,642.7012" style="stroke: #A80036; stroke-width: 1.0;"/><text fill="#000000" font-family="sans-serif" font-size="13" lengthAdjust="spacingAndGlyphs" textLength="126" x="177" y="624.959">result = NO_DEVICE</text><polygon fill="#A80036" points="14,705.0117,4,709.0117,14,713.0117,10,709.0117" style="stroke: #A80036; stroke-width: 1.0;"/><line style="stroke: #A80036; stroke-width: 1.0; stroke-dasharray: 2.0,2.0;" x1="8" x2="159" y1="709.0117" y2="709.0117"/><text fill="#000000" font-family="sans-serif" font-size="13" lengthAdjust="spacingAndGlyphs" textLength="36" x="20" y="704.2695">result</text><!--
@startuml

hide footbox

title searchROMBitCheck sequence

participant "OneWireDriver" as ModuleOneWireDriver<<M,Green>>[[../Class/OneWireDriver.svg]]



-> ModuleOneWireDriver : searchROMBitCheck()
  activate ModuleOneWireDriver

==Read AND and NOT-AND==
ref over ModuleOneWireDriver
  andOfLsb = readBit()
  [[./readBit.svg]]
end ref
ref over ModuleOneWireDriver
  andOfNOTLsb = readBit()
  [[./readBit.svg]]
end ref

==Evaluate the Situation==
opt andOfLSB | andOfNOTLsb = 00b
  ModuleOneWireDriver -> ModuleOneWireDriver : result = BOTH_EXISTS
      activate ModuleOneWireDriver
      deactivate ModuleOneWireDriver
else 01b
  ModuleOneWireDriver -> ModuleOneWireDriver : result = ONLY_0_EXISTS
    activate ModuleOneWireDriver
    deactivate ModuleOneWireDriver
else 10b
  ModuleOneWireDriver -> ModuleOneWireDriver : result = ONLY_1_EXISTS
    activate ModuleOneWireDriver
    deactivate ModuleOneWireDriver
else 11b
  ModuleOneWireDriver -> ModuleOneWireDriver : result = NO_DEVICE
    activate ModuleOneWireDriver
    deactivate ModuleOneWireDriver
end

<- - ModuleOneWireDriver : result
  deactivate ModuleOneWireDriver

@enduml

PlantUML version 1.2018.09(Sat Jul 28 01:58:18 JST 2018)
(GPL source distribution)
Java Runtime: Java(TM) SE Runtime Environment
JVM: Java HotSpot(TM) 64-Bit Server VM
Java Version: 9.0.1+11
Operating System: Mac OS X
OS Version: 10.13.6
Default Encoding: UTF-8
Language: ja
Country: JP
--></g></svg>