<?xml version="1.0" encoding="UTF-8" standalone="no"?><svg xmlns="http://www.w3.org/2000/svg" xmlns:xlink="http://www.w3.org/1999/xlink" contentScriptType="application/ecmascript" contentStyleType="text/css" height="336px" preserveAspectRatio="none" style="width:371px;height:336px;" version="1.1" viewBox="0 0 371 336" width="371px" zoomAndPan="magnify"><defs><filter height="300%" id="f1h70wjedp7kgz" width="300%" x="-1" y="-1"><feGaussianBlur result="blurOut" stdDeviation="2.0"/><feColorMatrix in="blurOut" result="blurOut2" type="matrix" values="0 0 0 0 0 0 0 0 0 0 0 0 0 0 0 0 0 0 .4 0"/><feOffset dx="4.0" dy="4.0" in="blurOut2" result="blurOut3"/><feBlend in="SourceGraphic" in2="blurOut3" mode="normal"/></filter></defs><g><text fill="#000000" font-family="sans-serif" font-size="14" font-weight="bold" lengthAdjust="spacingAndGlyphs" textLength="140" x="116.75" y="23.5352">WriteByte sequence</text><rect fill="#FFFFFF" filter="url(#f1h70wjedp7kgz)" height="200.4844" style="stroke: #A80036; stroke-width: 1.0;" width="10" x="201" y="105.7988"/><rect fill="#FFFFFF" filter="url(#f1h70wjedp7kgz)" height="172.4844" style="stroke: #000000; stroke-width: 2.0;" width="247" x="113.5" y="120.7988"/><rect fill="#FFFFFF" filter="url(#f1h70wjedp7kgz)" height="141.1738" style="stroke: #000000; stroke-width: 2.0;" width="227" x="123.5" y="145.1094"/><rect fill="#FFFFFF" height="62.9316" style="stroke: none; stroke-width: 1.0;" width="227" x="123.5" y="223.3516"/><line style="stroke: #A80036; stroke-width: 1.0; stroke-dasharray: 5.0,5.0;" x1="205.5" x2="205.5" y1="74.4883" y2="324.2832"/><a target="_top" xlink:actuate="onRequest" xlink:href="../Class/OneWireDriver.svg" xlink:show="new" xlink:title="../Class/OneWireDriver.svg" xlink:type="simple"><rect fill="#FEFECE" filter="url(#f1h70wjedp7kgz)" height="36" style="stroke: #A80036; stroke-width: 1.5;" width="141" x="133.5" y="33.4883"/><ellipse cx="151.5" cy="51.4883" fill="#008000" rx="11" ry="11" style="stroke: #A80036; stroke-width: 1.0;"/><path d="M147.2139,45.0952 L150.1357,45.0952 L151.6133,50.5322 L153.0825,45.0952 L156.021,45.0952 L156.021,57.4883 L153.9126,57.4883 L153.9126,47.5605 L152.6011,52.981 L150.6504,52.981 L149.3223,47.5605 L149.3223,57.4883 L147.2139,57.4883 Z "/><text fill="#000000" font-family="sans-serif" font-size="14" lengthAdjust="spacingAndGlyphs" textLength="99" x="168.5" y="54.4883">OneWireDriver</text></a><rect fill="#FFFFFF" filter="url(#f1h70wjedp7kgz)" height="200.4844" style="stroke: #A80036; stroke-width: 1.0;" width="10" x="201" y="105.7988"/><polygon fill="#A80036" points="189,101.7988,199,105.7988,189,109.7988,193,105.7988" style="stroke: #A80036; stroke-width: 1.0;"/><line style="stroke: #A80036; stroke-width: 1.0;" x1="3" x2="195" y1="105.7988" y2="105.7988"/><text fill="#000000" font-family="sans-serif" font-size="13" lengthAdjust="spacingAndGlyphs" textLength="179" x="10" y="101.0566">WriteByte(byteData : uint8_t)</text><path d="M113.5,120.7988 L187.5,120.7988 L187.5,127.7988 L177.5,137.7988 L113.5,137.7988 L113.5,120.7988 " fill="#EEEEEE" style="stroke: #000000; stroke-width: 1.0;"/><rect fill="none" height="172.4844" style="stroke: #000000; stroke-width: 2.0;" width="247" x="113.5" y="120.7988"/><text fill="#000000" font-family="sans-serif" font-size="13" font-weight="bold" lengthAdjust="spacingAndGlyphs" textLength="29" x="128.5" y="134.3672">loop</text><text fill="#000000" font-family="sans-serif" font-size="11" font-weight="bold" lengthAdjust="spacingAndGlyphs" textLength="50" x="202.5" y="133.4336">[cnt[0:7]]</text><path d="M123.5,145.1094 L190.5,145.1094 L190.5,152.1094 L180.5,162.1094 L123.5,162.1094 L123.5,145.1094 " fill="#EEEEEE" style="stroke: #000000; stroke-width: 1.0;"/><rect fill="none" height="141.1738" style="stroke: #000000; stroke-width: 2.0;" width="227" x="123.5" y="145.1094"/><text fill="#000000" font-family="sans-serif" font-size="13" font-weight="bold" lengthAdjust="spacingAndGlyphs" textLength="22" x="138.5" y="158.6777">opt</text><text fill="#000000" font-family="sans-serif" font-size="11" font-weight="bold" lengthAdjust="spacingAndGlyphs" textLength="140" x="205.5" y="157.7441">[bit[cnt] of byteData = 1]</text><rect fill="#FFFFFF" filter="url(#f1h70wjedp7kgz)" height="55.9316" style="stroke: #000000; stroke-width: 2.0;" width="147" x="130.5" y="162.4199"/><polygon fill="#EEEEEE" points="130.5,162.4199,194.5,162.4199,194.5,169.4199,184.5,179.4199,130.5,179.4199,130.5,162.4199" style="stroke: #000000; stroke-width: 2.0;"/><text fill="#000000" font-family="sans-serif" font-size="13" font-weight="bold" lengthAdjust="spacingAndGlyphs" textLength="19" x="143.5" y="176.9883">ref</text><text fill="#000000" font-family="sans-serif" font-size="13" lengthAdjust="spacingAndGlyphs" textLength="47" x="168" y="195.9883">write0()</text><a target="_top" xlink:actuate="onRequest" xlink:href="./write0.svg" xlink:show="new" xlink:title="./write0.svg" xlink:type="simple"><text fill="#0000FF" font-family="sans-serif" font-size="13" lengthAdjust="spacingAndGlyphs" text-decoration="underline" textLength="76" x="168" y="211.2988">./write0.svg</text><line style="stroke: #0000FF; stroke-width: 1.0;" x1="168" x2="244" y1="213.2988" y2="213.2988"/></a><line style="stroke: #000000; stroke-width: 1.0; stroke-dasharray: 2.0,2.0;" x1="123.5" x2="350.5" y1="224.3516" y2="224.3516"/><rect fill="#FFFFFF" filter="url(#f1h70wjedp7kgz)" height="55.9316" style="stroke: #000000; stroke-width: 2.0;" width="147" x="130.5" y="225.3516"/><polygon fill="#EEEEEE" points="130.5,225.3516,194.5,225.3516,194.5,232.3516,184.5,242.3516,130.5,242.3516,130.5,225.3516" style="stroke: #000000; stroke-width: 2.0;"/><text fill="#000000" font-family="sans-serif" font-size="13" font-weight="bold" lengthAdjust="spacingAndGlyphs" textLength="19" x="143.5" y="239.9199">ref</text><text fill="#000000" font-family="sans-serif" font-size="13" lengthAdjust="spacingAndGlyphs" textLength="47" x="168" y="258.9199">write1()</text><a target="_top" xlink:actuate="onRequest" xlink:href="./write1.svg" xlink:show="new" xlink:title="./write1.svg" xlink:type="simple"><text fill="#0000FF" font-family="sans-serif" font-size="13" lengthAdjust="spacingAndGlyphs" text-decoration="underline" textLength="76" x="168" y="274.2305">./write1.svg</text><line style="stroke: #0000FF; stroke-width: 1.0;" x1="168" x2="244" y1="276.2305" y2="276.2305"/></a><polygon fill="#A80036" points="14,302.2832,4,306.2832,14,310.2832,10,306.2832" style="stroke: #A80036; stroke-width: 1.0;"/><line style="stroke: #A80036; stroke-width: 1.0; stroke-dasharray: 2.0,2.0;" x1="8" x2="205" y1="306.2832" y2="306.2832"/><!--
@startuml

hide footbox

title WriteByte sequence

participant "OneWireDriver" as ModuleOneWireDriver<<M,Green>>[[../Class/OneWireDriver.svg]]



-> ModuleOneWireDriver : WriteByte(byteData : uint8_t)
  activate ModuleOneWireDriver

loop cnt[0:7]
  opt bit[cnt] of byteData = 1
    ref over ModuleOneWireDriver
      write0()
      [[./write0.svg]]
    end ref
  else
    ref over ModuleOneWireDriver
      write1()
      [[./write1.svg]]
    end ref
  end
end
<- - ModuleOneWireDriver
  deactivate ModuleOneWireDriver

@enduml

PlantUML version 1.2018.09(Sat Jul 28 01:58:18 JST 2018)
(GPL source distribution)
Java Runtime: Java(TM) SE Runtime Environment
JVM: Java HotSpot(TM) 64-Bit Server VM
Java Version: 9.0.1+11
Operating System: Mac OS X
OS Version: 10.13.6
Default Encoding: UTF-8
Language: ja
Country: JP
--></g></svg>