<?xml version="1.0" encoding="UTF-8" standalone="no"?><svg xmlns="http://www.w3.org/2000/svg" xmlns:xlink="http://www.w3.org/1999/xlink" contentScriptType="application/ecmascript" contentStyleType="text/css" height="539px" preserveAspectRatio="none" style="width:474px;height:539px;" version="1.1" viewBox="0 0 474 539" width="474px" zoomAndPan="magnify"><defs><filter height="300%" id="f2xr05ntzs2vg" width="300%" x="-1" y="-1"><feGaussianBlur result="blurOut" stdDeviation="2.0"/><feColorMatrix in="blurOut" result="blurOut2" type="matrix" values="0 0 0 0 0 0 0 0 0 0 0 0 0 0 0 0 0 0 .4 0"/><feOffset dx="4.0" dy="4.0" in="blurOut2" result="blurOut3"/><feBlend in="SourceGraphic" in2="blurOut3" mode="normal"/></filter></defs><g><text fill="#000000" font-family="sans-serif" font-size="14" font-weight="bold" lengthAdjust="spacingAndGlyphs" textLength="117" x="174" y="23.5352">write0 sequence</text><rect fill="#FFFFFF" filter="url(#f2xr05ntzs2vg)" height="403.7949" style="stroke: #A80036; stroke-width: 1.0;" width="10" x="75.5" y="105.7988"/><rect fill="#FFFFFF" filter="url(#f2xr05ntzs2vg)" height="14" style="stroke: #A80036; stroke-width: 1.0;" width="10" x="230" y="178.4199"/><rect fill="#FFFFFF" filter="url(#f2xr05ntzs2vg)" height="14" style="stroke: #A80036; stroke-width: 1.0;" width="10" x="230" y="221.7305"/><rect fill="#FFFFFF" filter="url(#f2xr05ntzs2vg)" height="14" style="stroke: #A80036; stroke-width: 1.0;" width="10" x="230" y="308.3516"/><rect fill="#FFFFFF" filter="url(#f2xr05ntzs2vg)" height="14" style="stroke: #A80036; stroke-width: 1.0;" width="10" x="382" y="265.041"/><rect fill="#FFFFFF" filter="url(#f2xr05ntzs2vg)" height="14" style="stroke: #A80036; stroke-width: 1.0;" width="10" x="382" y="394.9727"/><rect fill="#FFFFFF" filter="url(#f2xr05ntzs2vg)" height="14" style="stroke: #A80036; stroke-width: 1.0;" width="10" x="382" y="481.5938"/><line style="stroke: #A80036; stroke-width: 1.0; stroke-dasharray: 5.0,5.0;" x1="80" x2="80" y1="74.4883" y2="527.5938"/><line style="stroke: #A80036; stroke-width: 1.0; stroke-dasharray: 5.0,5.0;" x1="235" x2="235" y1="74.4883" y2="527.5938"/><line style="stroke: #A80036; stroke-width: 1.0; stroke-dasharray: 5.0,5.0;" x1="387" x2="387" y1="74.4883" y2="527.5938"/><a target="_top" xlink:actuate="onRequest" xlink:href="../Class/OneWireDriver.svg" xlink:show="new" xlink:title="../Class/OneWireDriver.svg" xlink:type="simple"><rect fill="#FEFECE" filter="url(#f2xr05ntzs2vg)" height="36" style="stroke: #A80036; stroke-width: 1.5;" width="141" x="8" y="33.4883"/><ellipse cx="26" cy="51.4883" fill="#008000" rx="11" ry="11" style="stroke: #A80036; stroke-width: 1.0;"/><path d="M21.7139,45.0952 L24.6357,45.0952 L26.1133,50.5322 L27.5825,45.0952 L30.521,45.0952 L30.521,57.4883 L28.4126,57.4883 L28.4126,47.5605 L27.1011,52.981 L25.1504,52.981 L23.8223,47.5605 L23.8223,57.4883 L21.7139,57.4883 Z "/><text fill="#000000" font-family="sans-serif" font-size="14" lengthAdjust="spacingAndGlyphs" textLength="99" x="43" y="54.4883">OneWireDriver</text></a><a target="_top" xlink:actuate="onRequest" xlink:href="../Class/OneWireDriver.svg" xlink:show="new" xlink:title="../Class/OneWireDriver.svg" xlink:type="simple"><rect fill="#FEFECE" filter="url(#f2xr05ntzs2vg)" height="36" style="stroke: #A80036; stroke-width: 1.5;" width="140" x="163" y="33.4883"/><ellipse cx="181" cy="51.4883" fill="#008000" rx="11" ry="11" style="stroke: #A80036; stroke-width: 1.0;"/><path d="M176.7139,45.0952 L179.6357,45.0952 L181.1133,50.5322 L182.5825,45.0952 L185.521,45.0952 L185.521,57.4883 L183.4126,57.4883 L183.4126,47.5605 L182.1011,52.981 L180.1504,52.981 L178.8223,47.5605 L178.8223,57.4883 L176.7139,57.4883 Z "/><text fill="#000000" font-family="sans-serif" font-size="14" lengthAdjust="spacingAndGlyphs" textLength="98" x="198" y="54.4883">GPIO_Wrapper</text></a><a target="_top" xlink:actuate="onRequest" xlink:href="../Class/OneWireDriver.svg" xlink:show="new" xlink:title="../Class/OneWireDriver.svg" xlink:type="simple"><rect fill="#FEFECE" filter="url(#f2xr05ntzs2vg)" height="36" style="stroke: #A80036; stroke-width: 1.5;" width="136" x="317" y="33.4883"/><ellipse cx="335" cy="51.4883" fill="#008000" rx="11" ry="11" style="stroke: #A80036; stroke-width: 1.0;"/><path d="M330.7139,45.0952 L333.6357,45.0952 L335.1133,50.5322 L336.5825,45.0952 L339.521,45.0952 L339.521,57.4883 L337.4126,57.4883 L337.4126,47.5605 L336.1011,52.981 L334.1504,52.981 L332.8223,47.5605 L332.8223,57.4883 L330.7139,57.4883 Z "/><text fill="#000000" font-family="sans-serif" font-size="14" lengthAdjust="spacingAndGlyphs" textLength="94" x="352" y="54.4883">Wait_Wrapper</text></a><rect fill="#FFFFFF" filter="url(#f2xr05ntzs2vg)" height="403.7949" style="stroke: #A80036; stroke-width: 1.0;" width="10" x="75.5" y="105.7988"/><rect fill="#FFFFFF" filter="url(#f2xr05ntzs2vg)" height="14" style="stroke: #A80036; stroke-width: 1.0;" width="10" x="230" y="178.4199"/><rect fill="#FFFFFF" filter="url(#f2xr05ntzs2vg)" height="14" style="stroke: #A80036; stroke-width: 1.0;" width="10" x="230" y="221.7305"/><rect fill="#FFFFFF" filter="url(#f2xr05ntzs2vg)" height="14" style="stroke: #A80036; stroke-width: 1.0;" width="10" x="230" y="308.3516"/><rect fill="#FFFFFF" filter="url(#f2xr05ntzs2vg)" height="14" style="stroke: #A80036; stroke-width: 1.0;" width="10" x="382" y="265.041"/><rect fill="#FFFFFF" filter="url(#f2xr05ntzs2vg)" height="14" style="stroke: #A80036; stroke-width: 1.0;" width="10" x="382" y="394.9727"/><rect fill="#FFFFFF" filter="url(#f2xr05ntzs2vg)" height="14" style="stroke: #A80036; stroke-width: 1.0;" width="10" x="382" y="481.5938"/><polygon fill="#A80036" points="63.5,101.7988,73.5,105.7988,63.5,109.7988,67.5,105.7988" style="stroke: #A80036; stroke-width: 1.0;"/><line style="stroke: #A80036; stroke-width: 1.0;" x1="3" x2="69.5" y1="105.7988" y2="105.7988"/><text fill="#000000" font-family="sans-serif" font-size="13" lengthAdjust="spacingAndGlyphs" textLength="47" x="10" y="101.0566">write0()</text><rect fill="#EEEEEE" filter="url(#f2xr05ntzs2vg)" height="3" style="stroke: #EEEEEE; stroke-width: 1.0;" width="459" x="3" y="134.4541"/><line style="stroke: #000000; stroke-width: 1.0;" x1="3" x2="462" y1="134.4541" y2="134.4541"/><line style="stroke: #000000; stroke-width: 1.0;" x1="3" x2="462" y1="137.4541" y2="137.4541"/><rect fill="#EEEEEE" filter="url(#f2xr05ntzs2vg)" height="23.3105" style="stroke: #000000; stroke-width: 2.0;" width="102" x="181.5" y="123.7988"/><text fill="#000000" font-family="sans-serif" font-size="13" font-weight="bold" lengthAdjust="spacingAndGlyphs" textLength="84" x="187.5" y="140.3672">PulseOutput</text><polygon fill="#A80036" points="218,174.4199,228,178.4199,218,182.4199,222,178.4199" style="stroke: #A80036; stroke-width: 1.0;"/><line style="stroke: #A80036; stroke-width: 1.0;" x1="85.5" x2="224" y1="178.4199" y2="178.4199"/><text fill="#000000" font-family="sans-serif" font-size="13" lengthAdjust="spacingAndGlyphs" textLength="104" x="92.5" y="173.6777">SetPin2TxMode()</text><polygon fill="#A80036" points="96.5,188.4199,86.5,192.4199,96.5,196.4199,92.5,192.4199" style="stroke: #A80036; stroke-width: 1.0;"/><line style="stroke: #A80036; stroke-width: 1.0; stroke-dasharray: 2.0,2.0;" x1="90.5" x2="234" y1="192.4199" y2="192.4199"/><polygon fill="#A80036" points="218,217.7305,228,221.7305,218,225.7305,222,221.7305" style="stroke: #A80036; stroke-width: 1.0;"/><line style="stroke: #A80036; stroke-width: 1.0;" x1="85.5" x2="224" y1="221.7305" y2="221.7305"/><text fill="#000000" font-family="sans-serif" font-size="13" lengthAdjust="spacingAndGlyphs" textLength="67" x="92.5" y="216.9883">AssertPin()</text><polygon fill="#A80036" points="96.5,231.7305,86.5,235.7305,96.5,239.7305,92.5,235.7305" style="stroke: #A80036; stroke-width: 1.0;"/><line style="stroke: #A80036; stroke-width: 1.0; stroke-dasharray: 2.0,2.0;" x1="90.5" x2="234" y1="235.7305" y2="235.7305"/><polygon fill="#A80036" points="370,261.041,380,265.041,370,269.041,374,265.041" style="stroke: #A80036; stroke-width: 1.0;"/><line style="stroke: #A80036; stroke-width: 1.0;" x1="85.5" x2="376" y1="265.041" y2="265.041"/><text fill="#000000" font-family="sans-serif" font-size="13" lengthAdjust="spacingAndGlyphs" textLength="108" x="92.5" y="260.2988">Wait_us(T_LOW1)</text><polygon fill="#A80036" points="96.5,275.041,86.5,279.041,96.5,283.041,92.5,279.041" style="stroke: #A80036; stroke-width: 1.0;"/><line style="stroke: #A80036; stroke-width: 1.0; stroke-dasharray: 2.0,2.0;" x1="90.5" x2="386" y1="279.041" y2="279.041"/><polygon fill="#A80036" points="218,304.3516,228,308.3516,218,312.3516,222,308.3516" style="stroke: #A80036; stroke-width: 1.0;"/><line style="stroke: #A80036; stroke-width: 1.0;" x1="85.5" x2="224" y1="308.3516" y2="308.3516"/><text fill="#000000" font-family="sans-serif" font-size="13" lengthAdjust="spacingAndGlyphs" textLength="71" x="92.5" y="303.6094">NegatePin()</text><polygon fill="#A80036" points="96.5,318.3516,86.5,322.3516,96.5,326.3516,92.5,322.3516" style="stroke: #A80036; stroke-width: 1.0;"/><line style="stroke: #A80036; stroke-width: 1.0; stroke-dasharray: 2.0,2.0;" x1="90.5" x2="234" y1="322.3516" y2="322.3516"/><rect fill="#EEEEEE" filter="url(#f2xr05ntzs2vg)" height="3" style="stroke: #EEEEEE; stroke-width: 1.0;" width="459" x="3" y="351.0068"/><line style="stroke: #000000; stroke-width: 1.0;" x1="3" x2="462" y1="351.0068" y2="351.0068"/><line style="stroke: #000000; stroke-width: 1.0;" x1="3" x2="462" y1="354.0068" y2="354.0068"/><rect fill="#EEEEEE" filter="url(#f2xr05ntzs2vg)" height="23.3105" style="stroke: #000000; stroke-width: 2.0;" width="132" x="166.5" y="340.3516"/><text fill="#000000" font-family="sans-serif" font-size="13" font-weight="bold" lengthAdjust="spacingAndGlyphs" textLength="118" x="172.5" y="356.9199">Wiat for Time slot</text><polygon fill="#A80036" points="370,390.9727,380,394.9727,370,398.9727,374,394.9727" style="stroke: #A80036; stroke-width: 1.0;"/><line style="stroke: #A80036; stroke-width: 1.0;" x1="85.5" x2="376" y1="394.9727" y2="394.9727"/><text fill="#000000" font-family="sans-serif" font-size="13" lengthAdjust="spacingAndGlyphs" textLength="171" x="92.5" y="390.2305">Wait_us(T_SLOT - T_LOW1)</text><polygon fill="#A80036" points="96.5,404.9727,86.5,408.9727,96.5,412.9727,92.5,408.9727" style="stroke: #A80036; stroke-width: 1.0;"/><line style="stroke: #A80036; stroke-width: 1.0; stroke-dasharray: 2.0,2.0;" x1="90.5" x2="386" y1="408.9727" y2="408.9727"/><rect fill="#EEEEEE" filter="url(#f2xr05ntzs2vg)" height="3" style="stroke: #EEEEEE; stroke-width: 1.0;" width="459" x="3" y="437.6279"/><line style="stroke: #000000; stroke-width: 1.0;" x1="3" x2="462" y1="437.6279" y2="437.6279"/><line style="stroke: #000000; stroke-width: 1.0;" x1="3" x2="462" y1="440.6279" y2="440.6279"/><rect fill="#EEEEEE" filter="url(#f2xr05ntzs2vg)" height="23.3105" style="stroke: #000000; stroke-width: 2.0;" width="76" x="194.5" y="426.9727"/><text fill="#000000" font-family="sans-serif" font-size="13" font-weight="bold" lengthAdjust="spacingAndGlyphs" textLength="62" x="200.5" y="443.541">Recovery</text><polygon fill="#A80036" points="370,477.5938,380,481.5938,370,485.5938,374,481.5938" style="stroke: #A80036; stroke-width: 1.0;"/><line style="stroke: #A80036; stroke-width: 1.0;" x1="85.5" x2="376" y1="481.5938" y2="481.5938"/><text fill="#000000" font-family="sans-serif" font-size="13" lengthAdjust="spacingAndGlyphs" textLength="96" x="92.5" y="476.8516">Wait_us(T_REC)</text><polygon fill="#A80036" points="96.5,491.5938,86.5,495.5938,96.5,499.5938,92.5,495.5938" style="stroke: #A80036; stroke-width: 1.0;"/><line style="stroke: #A80036; stroke-width: 1.0; stroke-dasharray: 2.0,2.0;" x1="90.5" x2="386" y1="495.5938" y2="495.5938"/><polygon fill="#A80036" points="14,505.5938,4,509.5938,14,513.5938,10,509.5938" style="stroke: #A80036; stroke-width: 1.0;"/><line style="stroke: #A80036; stroke-width: 1.0; stroke-dasharray: 2.0,2.0;" x1="8" x2="79.5" y1="509.5938" y2="509.5938"/><!--
@startuml

hide footbox

title write0 sequence

participant "OneWireDriver" as ModuleOneWireDriver<<M,Green>>[[../Class/OneWireDriver.svg]]
participant "GPIO_Wrapper" as ModuleGPIO_Wrapper<<M,Green>>[[../Class/OneWireDriver.svg]]
participant "Wait_Wrapper" as ModuleWait_Wrapper<<M,Green>>[[../Class/OneWireDriver.svg]]

-> ModuleOneWireDriver : write0()
  activate ModuleOneWireDriver

== PulseOutput ==
ModuleOneWireDriver -> ModuleGPIO_Wrapper : SetPin2TxMode()
  activate ModuleGPIO_Wrapper
ModuleOneWireDriver <- - ModuleGPIO_Wrapper
  deactivate ModuleGPIO_Wrapper

ModuleOneWireDriver -> ModuleGPIO_Wrapper : AssertPin()
  activate ModuleGPIO_Wrapper
ModuleOneWireDriver <- - ModuleGPIO_Wrapper
  deactivate ModuleGPIO_Wrapper

ModuleOneWireDriver -> ModuleWait_Wrapper : Wait_us(T_LOW1)
  activate ModuleWait_Wrapper
ModuleOneWireDriver <- - ModuleWait_Wrapper
  deactivate ModuleWait_Wrapper

ModuleOneWireDriver -> ModuleGPIO_Wrapper : NegatePin()
  activate ModuleGPIO_Wrapper
ModuleOneWireDriver <- - ModuleGPIO_Wrapper
  deactivate ModuleGPIO_Wrapper

==Wiat for Time slot==
ModuleOneWireDriver -> ModuleWait_Wrapper : Wait_us(T_SLOT - T_LOW1)
  activate ModuleWait_Wrapper
ModuleOneWireDriver <- - ModuleWait_Wrapper
  deactivate ModuleWait_Wrapper

==Recovery==
ModuleOneWireDriver -> ModuleWait_Wrapper : Wait_us(T_REC)
  activate ModuleWait_Wrapper
ModuleOneWireDriver <- - ModuleWait_Wrapper
  deactivate ModuleWait_Wrapper

<- - ModuleOneWireDriver
  deactivate ModuleOneWireDriver

@enduml

PlantUML version 1.2018.09(Sat Jul 28 01:58:18 JST 2018)
(GPL source distribution)
Java Runtime: Java(TM) SE Runtime Environment
JVM: Java HotSpot(TM) 64-Bit Server VM
Java Version: 9.0.1+11
Operating System: Mac OS X
OS Version: 10.13.6
Default Encoding: UTF-8
Language: ja
Country: JP
--></g></svg>